<?xml version="1.0" encoding="UTF-8" standalone="no"?>
<!-- Created with Inkscape (http://www.inkscape.org/) -->

<svg
   width="297.76422mm"
   height="127.31921mm"
   viewBox="0 0 297.76422 127.31921"
   version="1.1"
   id="svg1"
   sodipodi:docname="conait.svg"
   inkscape:version="1.4 (86a8ad7, 2024-10-11)"
   inkscape:export-filename="conait.svg"
   inkscape:export-xdpi="96"
   inkscape:export-ydpi="96"
   xmlns:inkscape="http://www.inkscape.org/namespaces/inkscape"
   xmlns:sodipodi="http://sodipodi.sourceforge.net/DTD/sodipodi-0.dtd"
   xmlns:xlink="http://www.w3.org/1999/xlink"
   xmlns="http://www.w3.org/2000/svg"
   xmlns:svg="http://www.w3.org/2000/svg">
  <sodipodi:namedview
     id="namedview1"
     pagecolor="#ffffff"
     bordercolor="#000000"
     borderopacity="0.25"
     inkscape:showpageshadow="2"
     inkscape:pageopacity="0.0"
     inkscape:pagecheckerboard="0"
     inkscape:deskcolor="#d1d1d1"
     inkscape:document-units="mm"
     inkscape:zoom="0.78771427"
     inkscape:cx="540.17049"
     inkscape:cy="305.31375"
     inkscape:window-width="1920"
     inkscape:window-height="991"
     inkscape:window-x="-9"
     inkscape:window-y="-9"
     inkscape:window-maximized="1"
     inkscape:current-layer="layer1" />
  <defs
     id="defs1">
    <linearGradient
       id="linearGradient2"
       inkscape:collect="always">
      <stop
         style="stop-color:#8e008e;stop-opacity:0.42260443;"
         offset="0.47261176"
         id="stop1" />
      <stop
         style="stop-color:#8e008e;stop-opacity:0;"
         offset="1"
         id="stop2" />
    </linearGradient>
    <linearGradient
       id="linearGradient31"
       inkscape:collect="always">
      <stop
         style="stop-color:#8e008e;stop-opacity:0.42260443;"
         offset="0.0001"
         id="stop30" />
      <stop
         style="stop-color:#8e008e;stop-opacity:0;"
         offset="1"
         id="stop31" />
    </linearGradient>
    <linearGradient
       id="linearGradient25"
       inkscape:collect="always">
      <stop
         style="stop-color:#8e008e;stop-opacity:0.42260443;"
         offset="0"
         id="stop24" />
      <stop
         style="stop-color:#8e008e;stop-opacity:0;"
         offset="1"
         id="stop25" />
    </linearGradient>
    <linearGradient
       id="linearGradient21"
       inkscape:collect="always">
      <stop
         style="stop-color:#8e008e;stop-opacity:0.42260443;"
         offset="0.17573221"
         id="stop21" />
      <stop
         style="stop-color:#8e008e;stop-opacity:0;"
         offset="1"
         id="stop22" />
    </linearGradient>
    <clipPath
       clipPathUnits="userSpaceOnUse"
       id="clipPath34">
      <rect
         style="opacity:1;fill:#501c5a;stroke:#fffefe;stroke-width:0;stroke-miterlimit:0"
         id="rect35"
         width="297.76422"
         height="127.96255"
         x="-0.11253466"
         y="37.42823"
         ry="0.016980167" />
    </clipPath>
    <clipPath
       clipPathUnits="userSpaceOnUse"
       id="clipPath35">
      <rect
         style="opacity:1;fill:#501c5a;stroke:#fffefe;stroke-width:0;stroke-miterlimit:0"
         id="rect36"
         width="297.76422"
         height="127.96255"
         x="-0.11253466"
         y="37.42823"
         ry="0.016980167" />
    </clipPath>
    <clipPath
       clipPathUnits="userSpaceOnUse"
       id="clipPath36">
      <rect
         style="opacity:1;fill:#501c5a;stroke:#fffefe;stroke-width:0;stroke-miterlimit:0"
         id="rect37"
         width="297.76422"
         height="127.96255"
         x="-0.11253466"
         y="37.42823"
         ry="0.016980167" />
    </clipPath>
    <clipPath
       clipPathUnits="userSpaceOnUse"
       id="clipPath53">
      <rect
         style="opacity:1;fill:#501c5a;stroke:#fffefe;stroke-width:0;stroke-miterlimit:0"
         id="rect54"
         width="297.76422"
         height="127.96255"
         x="-0.11253466"
         y="37.42823"
         ry="0.016980167" />
    </clipPath>
    <clipPath
       clipPathUnits="userSpaceOnUse"
       id="clipPath54">
      <rect
         style="opacity:1;fill:#501c5a;stroke:#fffefe;stroke-width:0;stroke-miterlimit:0"
         id="rect55"
         width="297.76422"
         height="127.96255"
         x="-3.6444097"
         y="37.42823"
         ry="0.016980167" />
    </clipPath>
    <clipPath
       clipPathUnits="userSpaceOnUse"
       id="clipPath55">
      <rect
         style="opacity:1;fill:#501c5a;stroke:#fffefe;stroke-width:0;stroke-miterlimit:0"
         id="rect56"
         width="297.76422"
         height="127.96255"
         x="-0.11253466"
         y="37.42823"
         ry="0.016980167" />
    </clipPath>
    <clipPath
       clipPathUnits="userSpaceOnUse"
       id="clipPath56">
      <rect
         style="opacity:1;fill:#501c5a;stroke:#fffefe;stroke-width:0;stroke-miterlimit:0"
         id="rect57"
         width="297.76422"
         height="127.96255"
         x="-0.11253466"
         y="37.42823"
         ry="0.016980167" />
    </clipPath>
    <clipPath
       clipPathUnits="userSpaceOnUse"
       id="clipPath57">
      <rect
         style="opacity:1;fill:#501c5a;stroke:#fffefe;stroke-width:0;stroke-miterlimit:0"
         id="rect58"
         width="294.38446"
         height="129.47754"
         x="-0.11125735"
         y="37.871357"
         ry="0.017181203"
         transform="matrix(0.55698561,0.83052214,-0.82532926,0.56465177,0,0)" />
    </clipPath>
    <clipPath
       clipPathUnits="userSpaceOnUse"
       id="clipPath58">
      <rect
         style="opacity:1;fill:#501c5a;stroke:#fffefe;stroke-width:0;stroke-miterlimit:0"
         id="rect59"
         width="302.53058"
         height="126.02695"
         x="-0.11433603"
         y="36.862083"
         ry="0.016723324"
         transform="matrix(0.56596374,0.82443013,-0.83139933,0.5556754,0,0)" />
    </clipPath>
    <clipPath
       clipPathUnits="userSpaceOnUse"
       id="clipPath59">
      <rect
         style="opacity:1;fill:#501c5a;stroke:#fffefe;stroke-width:0;stroke-miterlimit:0"
         id="rect60"
         width="297.76422"
         height="127.96255"
         x="-0.1125349"
         y="37.42823"
         ry="0.016980167"
         transform="rotate(52.54192)" />
    </clipPath>
    <clipPath
       clipPathUnits="userSpaceOnUse"
       id="clipPath60">
      <rect
         style="opacity:1;fill:#501c5a;stroke:#fffefe;stroke-width:0;stroke-miterlimit:0"
         id="rect61"
         width="302.76263"
         height="125.93816"
         x="-0.11442372"
         y="36.836109"
         ry="0.016711539"
         transform="matrix(0.56620691,0.82426315,-0.83156156,0.5554326,0,0)" />
    </clipPath>
    <linearGradient
       inkscape:collect="always"
       xlink:href="#linearGradient21"
       id="linearGradient22"
       x1="96.607773"
       y1="-91.79599"
       x2="94.025192"
       y2="-61.42091"
       gradientUnits="userSpaceOnUse"
       gradientTransform="translate(118.77886,-55.648721)" />
    <linearGradient
       inkscape:collect="always"
       xlink:href="#linearGradient21"
       id="linearGradient23"
       gradientUnits="userSpaceOnUse"
       gradientTransform="translate(88.933764,-26.435508)"
       x1="101.76761"
       y1="-116.80567"
       x2="94.025192"
       y2="-61.42091" />
    <linearGradient
       inkscape:collect="always"
       xlink:href="#linearGradient25"
       id="linearGradient24"
       gradientUnits="userSpaceOnUse"
       gradientTransform="translate(59.081637,1.1960913)"
       x1="98.928352"
       y1="-91.24736"
       x2="98.06234"
       y2="-65.151329" />
    <linearGradient
       inkscape:collect="always"
       xlink:href="#linearGradient21"
       id="linearGradient26"
       gradientUnits="userSpaceOnUse"
       gradientTransform="translate(-47.752606,88.94417)"
       x1="96.607773"
       y1="-91.79599"
       x2="94.025192"
       y2="-61.42091" />
    <linearGradient
       inkscape:collect="always"
       xlink:href="#linearGradient21"
       id="linearGradient27"
       gradientUnits="userSpaceOnUse"
       gradientTransform="translate(-12.051949,61.630363)"
       x1="96.607773"
       y1="-91.79599"
       x2="94.025192"
       y2="-61.42091" />
    <linearGradient
       inkscape:collect="always"
       xlink:href="#linearGradient2"
       id="linearGradient28"
       gradientUnits="userSpaceOnUse"
       gradientTransform="translate(21.020971,29.840592)"
       x1="96.607773"
       y1="-91.79599"
       x2="94.025192"
       y2="-61.42091" />
    <linearGradient
       inkscape:collect="always"
       xlink:href="#linearGradient31"
       id="linearGradient30"
       gradientUnits="userSpaceOnUse"
       gradientTransform="translate(-12.051949,61.630363)"
       x1="98.551704"
       y1="-104.19675"
       x2="96.299469"
       y2="-88.192177" />
    <clipPath
       clipPathUnits="userSpaceOnUse"
       id="clipPath51">
      <rect
         style="opacity:1;fill:#8e008e;fill-opacity:0.422604;stroke:#fffefe;stroke-width:0;stroke-linejoin:round;stroke-miterlimit:0"
         id="rect52"
         width="295.59836"
         height="130.13385"
         x="-0.332133"
         y="-0.33977503"
         ry="1.8687626"
         transform="matrix(0.75103814,-0.66025882,0.66241288,0.74913895,0,0)" />
    </clipPath>
    <clipPath
       clipPathUnits="userSpaceOnUse"
       id="clipPath52">
      <rect
         style="opacity:1;fill:#8e008e;fill-opacity:0.422604;stroke:#fffefe;stroke-width:0;stroke-linejoin:round;stroke-miterlimit:0"
         id="rect53"
         width="295.59836"
         height="130.13385"
         x="-0.332133"
         y="-0.33977503"
         ry="1.8687626"
         transform="matrix(0.75103814,-0.66025882,0.66241288,0.74913895,0,0)" />
    </clipPath>
    <clipPath
       clipPathUnits="userSpaceOnUse"
       id="clipPath61">
      <rect
         style="opacity:1;fill:#8e008e;fill-opacity:0.422604;stroke:#fffefe;stroke-width:0;stroke-linejoin:round;stroke-miterlimit:0"
         id="rect62"
         width="295.59836"
         height="130.13385"
         x="-0.332133"
         y="-0.33977503"
         ry="1.8687626"
         transform="matrix(0.75103814,-0.66025882,0.66241288,0.74913895,0,0)" />
    </clipPath>
    <clipPath
       clipPathUnits="userSpaceOnUse"
       id="clipPath62">
      <rect
         style="opacity:1;fill:#8e008e;fill-opacity:0.422604;stroke:#fffefe;stroke-width:0;stroke-linejoin:round;stroke-miterlimit:0"
         id="rect63"
         width="295.59836"
         height="130.13385"
         x="-0.332133"
         y="-0.33977503"
         ry="1.8687626"
         transform="matrix(0.75103814,-0.66025882,0.66241288,0.74913895,0,0)" />
    </clipPath>
    <clipPath
       clipPathUnits="userSpaceOnUse"
       id="clipPath63">
      <rect
         style="opacity:1;fill:#8e008e;fill-opacity:0.422604;stroke:#fffefe;stroke-width:0;stroke-linejoin:round;stroke-miterlimit:0"
         id="rect64"
         width="295.59836"
         height="130.13385"
         x="-0.332133"
         y="-0.33977503"
         ry="1.8687626"
         transform="matrix(0.75103814,-0.66025882,0.66241288,0.74913895,0,0)" />
    </clipPath>
    <clipPath
       clipPathUnits="userSpaceOnUse"
       id="clipPath64">
      <rect
         style="opacity:1;fill:#8e008e;fill-opacity:0.422604;stroke:#fffefe;stroke-width:0;stroke-linejoin:round;stroke-miterlimit:0"
         id="rect65"
         width="295.59836"
         height="130.13385"
         x="-0.332133"
         y="-0.33977503"
         ry="1.8687626"
         transform="matrix(0.75103814,-0.66025882,0.66241288,0.74913895,0,0)" />
    </clipPath>
    <clipPath
       clipPathUnits="userSpaceOnUse"
       id="clipPath65">
      <rect
         style="opacity:1;fill:#8e008e;fill-opacity:0.422604;stroke:#fffefe;stroke-width:0;stroke-linejoin:round;stroke-miterlimit:0"
         id="rect66"
         width="295.59836"
         height="130.13385"
         x="-0.332133"
         y="-0.33977503"
         ry="1.8687626"
         transform="matrix(0.75103814,-0.66025882,0.66241288,0.74913895,0,0)" />
    </clipPath>
    <clipPath
       clipPathUnits="userSpaceOnUse"
       id="clipPath66">
      <rect
         style="opacity:1;fill:#8e008e;fill-opacity:0.422604;stroke:#fffefe;stroke-width:0;stroke-linejoin:round;stroke-miterlimit:0"
         id="rect67"
         width="298.93982"
         height="128.6449"
         x="-0.87925285"
         y="-0.064205006"
         ry="1.847381" />
    </clipPath>
  </defs>
  <g
     id="layer1"
     transform="translate(0.54336542,-0.27168244)"
     clip-path="url(#clipPath66)">
    <path
       id="rect1"
       style="opacity:1;fill:#240e28;fill-opacity:1;stroke:#fffefe;stroke-width:0;stroke-miterlimit:0"
       transform="matrix(0.54630905,-0.83758368,0.81790231,0.57535712,-0.43083072,-37.156547)"
       d="m 44.889054,34.742036 -0.001,-5.84e-4 c -2.1602,-3.202172 -5.82184,-5.299757 -9.991629,-5.299757 L 23.12572,29.441484 c 0.230958,0.342605 0.460911,0.685724 0.692515,1.027898 0.46331,0.684499 0.477324,1.268253 0.259577,1.631718 0.0067,0.0097 0.01327,0.01935 0.01993,0.02902 0.159063,0.230879 0.317645,0.461616 0.476434,0.692677 0.211927,0.308419 0.423884,0.617091 0.635773,0.925535 0.209569,0.30507 0.419069,0.610068 0.628633,0.91514 0.258387,0.390405 0.495832,0.794162 0.723544,1.202404 0.175384,0.30751 0.336663,0.622316 0.503975,0.933958 0.16155,0.288152 0.296834,0.588592 0.449762,0.881084 0.134761,0.252761 0.28374,0.498193 0.437067,0.740454 0.189826,0.296058 0.388547,0.586134 0.586399,0.877009 0.247439,0.363314 0.495996,0.725973 0.744628,1.088494 0.243,0.35423 0.486175,0.708571 0.729362,1.062676 0.253438,0.369023 0.506959,0.738002 0.760429,1.107004 0.307141,0.447134 0.614235,0.894179 0.921379,1.34131 0.04931,0.07178 0.06943,0.135873 0.105309,0.204501 0.07134,0.0735 0.141587,0.154921 0.209454,0.253719 l 0.530455,0.772217 0.63369,0.922503 c 0.151431,0.220129 0.29772,0.443406 0.463551,0.653265 0.150852,0.186538 0.297391,0.376407 0.440229,0.569016 0.206395,0.252028 0.404327,0.510903 0.597975,0.772609 0.263907,0.360383 0.519867,0.726387 0.775262,1.092672 0.296795,0.427023 0.591897,0.85461 0.886808,1.282899 0.2873,0.417358 0.574151,0.83509 0.861111,1.252675 0.26897,0.391432 0.537916,0.783104 0.806839,1.174567 0.231526,0.337027 0.463162,0.674257 0.69468,1.011289 l 0.774113,1.126926 0.608402,0.885689 c 0.208214,0.298758 0.413593,0.598648 0.605658,0.907741 0.229368,0.372909 0.469661,0.739148 0.711626,1.104219 0.288662,0.437626 0.591448,0.866296 0.87678,1.306023 0.221005,0.350134 0.439591,0.702003 0.665244,1.049273 0.257679,0.393802 0.522776,0.782467 0.78756,1.171649 0.104241,0.152883 0.127856,0.187684 0.154453,0.226643 0.204552,0.08784 0.418616,0.259123 0.61358,0.542945 l 0.425138,0.6189 0.603047,0.877893 0.469764,0.683865 0.501895,0.73064 0.442095,0.643586 2.54e-4,-24.25182 c 0,-2.501725 -0.755314,-4.820501 -2.05103,-6.741931 z M 23.351365,33.640181 c -0.158364,-0.230443 -0.316608,-0.460686 -0.475244,-0.690945 -0.161505,-0.234291 -0.322965,-0.468822 -0.485564,-0.702375 -0.18948,-0.271451 -0.379952,-0.54246 -0.574553,-0.810367 -0.180196,-0.246135 -0.366499,-0.487533 -0.555976,-0.726739 -0.17573,-0.233169 -0.338404,-0.475493 -0.516496,-0.706987 -0.13416,-0.173258 -0.271398,-0.344529 -0.429261,-0.497364 -0.02288,-0.02165 -0.04622,-0.04286 -0.0694,-0.06421 l -63.95725,5.36e-4 c -0.03835,0.03726 -0.07676,0.07445 -0.115166,0.111674 -0.365264,0.36591 -0.735019,0.733453 -1.178645,1.006503 -0.386071,0.257843 -0.772545,0.515557 -1.158684,0.773299 -0.366895,0.244861 -0.733664,0.490006 -1.10104,0.734165 -0.367733,0.244223 -0.735851,0.488106 -1.106647,0.7278 -0.400109,0.257118 -0.800993,0.51297 -1.216269,0.746053 -0.507412,0.280222 -1.024694,0.549461 -1.589364,0.705885 -0.301644,0.08165 -0.606977,0.151701 -0.915467,0.20585 -0.154992,0.296685 -0.379706,0.541119 -0.622617,0.767793 -0.305224,0.271361 -0.640403,0.506883 -0.974586,0.741314 -0.378988,0.263724 -0.762129,0.521562 -1.1452,0.779456 -0.323739,0.217702 -0.647702,0.434778 -0.971956,0.651734 -0.0043,0.0068 -0.0082,0.01358 -0.01253,0.02038 -0.240983,0.383209 -0.521291,0.58211 -0.794958,0.645343 -0.145721,0.164902 -0.319283,0.328151 -0.530931,0.485415 -0.260991,0.19393 -0.519387,0.39111 -0.769906,0.598283 -0.405445,0.31989 -0.836312,0.603265 -1.267915,0.887326 l -1.173611,0.783901 -0.969763,0.647742 -0.758724,0.506782 c -0.294562,0.196749 -0.589346,0.393651 -0.883909,0.590398 -0.316456,0.211368 -0.632573,0.422549 -0.94904,0.6339 -0.311877,0.208281 -0.624271,0.416543 -0.936226,0.624711 -0.298416,0.199086 -0.596847,0.398138 -0.895798,0.596443 -0.307793,0.20399 -0.61539,0.407464 -0.926356,0.606745 -0.360919,0.230352 -0.723933,0.458445 -1.098868,0.666373 -0.465091,0.253922 -0.93996,0.490431 -1.427824,0.700341 -0.358814,0.1516 -0.718168,0.301291 -1.075168,0.456575 -0.222098,0.09601 -0.432915,0.206308 -0.626463,0.350835 l -0.463947,0.309888 c 0.03528,0.110541 0.0036,0.252781 -0.180301,0.372525 -0.04266,0.02779 -0.08558,0.05587 -0.12849,0.0833 -0.09806,0.06259 -0.196029,0.124849 -0.296842,0.183109 -0.08269,0.04804 -0.164627,0.09719 -0.242569,0.152544 -0.07994,0.05341 -0.159899,0.10671 -0.239797,0.16017 -0.08475,0.05673 -0.16972,0.113524 -0.254302,0.17049 -0.09027,0.06087 -0.18031,0.121896 -0.269434,0.184389 -0.07351,0.05189 -0.146814,0.103964 -0.216414,0.160978 -0.07399,0.05924 -0.148723,0.117261 -0.225281,0.17322 -0.07835,0.06 -0.155512,0.121765 -0.239299,0.174368 -0.07991,0.05335 -0.160128,0.106482 -0.240095,0.159737 -0.07033,0.04681 -0.140518,0.09353 -0.21121,0.139812 -0.0705,0.04594 -0.140938,0.09184 -0.212745,0.135783 -0.07429,0.0451 -0.149503,0.08936 -0.22576,0.131207 -0.06025,0.03307 -0.113592,0.07734 -0.172176,0.113108 -0.01737,0.01158 -0.03467,0.02318 -0.05202,0.03475 -0.156531,0.148745 -0.339045,0.276509 -0.540796,0.377646 -0.02961,0.01232 -0.05981,0.01956 -0.08969,0.03021 -0.04361,0.02694 -0.08692,0.05436 -0.130698,0.08098 -0.101429,0.06182 -0.203009,0.123463 -0.300508,0.191244 -0.08986,0.06247 -0.174251,0.09153 -0.247571,0.09586 -0.05356,0.03286 -0.106891,0.0661 -0.160944,0.09802 -0.07054,0.04148 -0.141076,0.08212 -0.207591,0.129813 l -0.196237,0.131074 c -0.06855,0.04579 -0.136989,0.0915 -0.20554,0.137288 -0.08565,0.05721 -0.171779,0.114125 -0.257435,0.171319 -0.07932,0.05296 -0.158304,0.105898 -0.237683,0.158758 -0.06433,0.0428 -0.12883,0.08556 -0.193448,0.127948 -0.07128,0.04667 -0.14214,0.09368 -0.21558,0.137044 -0.07211,0.04162 -0.145325,0.08188 -0.221856,0.115333 -0.06355,0.02737 -0.128327,0.05227 -0.187866,0.08757 -0.05694,0.03119 -0.113184,0.0637 -0.165722,0.101847 l -0.177204,0.118362 -0.186509,0.124577 -0.191162,0.127684 c -0.02442,0.01631 -0.04841,0.02998 -0.07191,0.04171 -0.04771,0.06057 -0.09372,0.122579 -0.148647,0.177001 -0.06824,0.06537 -0.141658,0.125562 -0.216872,0.182766 -0.05646,0.04247 -0.114317,0.08239 -0.172663,0.122279 -0.06199,0.04214 -0.123523,0.0849 -0.187825,0.123559 -0.06839,0.03732 -0.136111,0.07594 -0.202624,0.116386 -0.07157,0.04391 -0.1418,0.08998 -0.212024,0.135934 -0.0625,0.04101 -0.124852,0.08233 -0.187104,0.12371 -0.108668,0.07223 -0.209182,0.09761 -0.291847,0.09069 -0.115354,0.106159 -0.237448,0.206483 -0.341628,0.323591 -0.105945,0.119093 -0.218015,0.17723 -0.313774,0.1881 -0.07403,0.04912 -0.148087,0.09818 -0.222504,0.146724 -0.09179,0.05967 -0.18412,0.119089 -0.278266,0.175124 -0.07756,0.04598 -0.156507,0.08916 -0.231587,0.138891 l -0.214845,0.143503 -0.224572,0.150001 c -0.07105,0.04745 -0.142112,0.09493 -0.213153,0.142373 -0.07996,0.0534 -0.16011,0.106369 -0.240095,0.159737 -0.08249,0.05502 -0.164794,0.110416 -0.24741,0.165255 -0.08799,0.05837 -0.176152,0.116679 -0.264969,0.173824 -0.09335,0.05995 -0.18709,0.119404 -0.282542,0.176084 -0.08999,0.05368 -0.18141,0.105043 -0.267191,0.165199 -0.08013,0.05354 -0.160592,0.107116 -0.240643,0.160736 -0.06988,0.04683 -0.139599,0.09366 -0.209175,0.140979 -0.06034,0.04118 -0.120552,0.08265 -0.179305,0.126083 -0.06953,0.05206 -0.137361,0.106222 -0.204213,0.161675 -0.11602,0.0945 -0.236405,0.183661 -0.352662,0.277889 -0.05541,0.04477 -0.110787,0.08965 -0.166495,0.133953 -0.02004,0.02227 -0.02064,0.04445 -0.04708,0.06619 -0.04434,0.03648 -0.089,0.07234 -0.136402,0.105009 l -0.299007,0.199718 -0.411081,0.274577 -0.374287,0.250001 -0.270671,0.180792 -0.252062,0.168362 -0.206387,0.137853 -0.201734,0.134747 -0.18524,0.123729 c -0.08155,0.05447 -0.163362,0.109111 -0.244873,0.16356 -0.07418,0.04956 -0.148027,0.09947 -0.22216,0.149021 -0.07528,0.05033 -0.150658,0.100395 -0.225841,0.150848 -0.05876,0.03951 -0.117556,0.07916 -0.175889,0.119379 -0.0646,0.04479 -0.128616,0.08992 -0.191648,0.136855 -0.08115,0.06066 -0.160306,0.124251 -0.240287,0.186402 -0.05493,0.03967 -0.110271,0.07896 -0.161309,0.123539 -0.109987,0.09608 -0.217777,0.133205 -0.306795,0.129102 -0.04447,0.02615 -0.08953,0.05132 -0.131543,0.08154 l -0.214422,0.143221 -0.225841,0.150848 -0.21992,0.146894 -0.240221,0.160452 -0.230493,0.153956 -0.228801,0.152825 -0.211462,0.141243 c -0.07384,0.04933 -0.14776,0.09869 -0.221611,0.148024 -0.06935,0.04633 -0.138737,0.09265 -0.208078,0.138983 -0.06802,0.04546 -0.136299,0.09089 -0.204272,0.136441 -0.07536,0.05053 -0.150597,0.101036 -0.225669,0.151997 -0.07434,0.05066 -0.148062,0.101625 -0.221174,0.154049 -0.07491,0.05375 -0.15038,0.10735 -0.222038,0.165367 -0.09252,0.07492 -0.182296,0.11043 -0.260652,0.117236 -0.025,0.02414 -0.02709,0.05031 -0.06095,0.07294 l -0.108268,0.07232 -0.244873,0.16356 -0.221611,0.148023 -0.217806,0.145481 -0.196236,0.131074 -0.194968,0.130227 c -0.06708,0.04481 -0.134201,0.08964 -0.201311,0.134463 -0.04965,0.03316 -0.09919,0.06626 -0.148869,0.09944 -0.05551,0.03706 -0.111103,0.0743 -0.166632,0.1113 -0.06385,0.04253 -0.127809,0.08524 -0.191881,0.127533 -0.06442,0.04241 -0.129057,0.0847 -0.194513,0.1255 -0.06604,0.04071 -0.13269,0.08031 -0.201778,0.115821 -0.06642,0.03421 -0.131027,0.07091 -0.194166,0.110736 -0.05637,0.0324 -0.114503,0.0617 -0.168994,0.09708 l -0.222034,0.148305 -0.230071,0.153673 c -0.02875,0.01921 -0.05677,0.03514 -0.08422,0.04804 -0.0081,0.0059 -0.0069,0.01284 -0.01559,0.01863 -0.04802,0.03215 -0.09605,0.06443 -0.14392,0.09676 -0.049,0.03315 -0.0981,0.06619 -0.14641,0.100321 -0.03181,0.0229 -0.06334,0.04643 -0.09293,0.07218 -0.04703,0.041 -0.09361,0.08264 -0.147478,0.114933 l -0.146331,0.09774 -0.165786,0.110735 c -0.04681,0.03127 -0.0936,0.06251 -0.14041,0.09379 -0.04481,0.02994 -0.08966,0.05984 -0.13449,0.08983 -0.04543,0.0304 -0.0913,0.06073 -0.136604,0.09124 -0.05851,0.03946 -0.116758,0.07905 -0.174746,0.119247 -0.05039,0.03529 -0.10104,0.07066 -0.148761,0.109472 -0.04285,0.03629 -0.08299,0.075 -0.12151,0.115912 -0.04684,0.04175 -0.09486,0.08155 -0.146115,0.117814 -0.05254,0.04086 -0.102385,0.08537 -0.156266,0.124594 -0.05245,0.03503 -0.104861,0.07005 -0.157327,0.105085 -0.04995,0.03335 -0.09975,0.06672 -0.149715,0.100001 -0.04715,0.03139 -0.09444,0.0624 -0.141851,0.09348 -0.05659,0.03702 -0.113197,0.07417 -0.171127,0.109247 -0.06451,0.03824 -0.129812,0.07479 -0.198753,0.104956 -0.0744,0.03252 -0.151045,0.06019 -0.225894,0.09149 -0.05694,0.02743 -0.1164,0.04966 -0.166941,0.0875 l -0.177628,0.118644 -0.122647,0.08192 c -0.01807,0.01797 -0.0179,0.03685 -0.0405,0.05422 -0.04532,0.03483 -0.02438,0.01997 -0.06136,0.0454 -0.04032,0.02798 -0.08051,0.05599 -0.118952,0.0864 -0.0495,0.03933 -0.09675,0.08152 -0.147807,0.118944 l -0.146332,0.09774 -0.138291,0.09237 -0.14887,0.09943 -0.1586,0.105933 -0.13956,0.09322 c -0.0408,0.02725 -0.0815,0.05442 -0.12223,0.08164 -0.0399,0.02663 -0.0798,0.05333 -0.11969,0.07994 -0.0423,0.02827 -0.0845,0.05655 -0.12687,0.08475 -0.0498,0.03311 -0.0999,0.06609 -0.14989,0.09885 -0.0559,0.03654 -0.11195,0.07306 -0.16931,0.107402 -0.0546,0.0316 -0.11012,0.06123 -0.16902,0.08446 -0.0592,0.02332 -0.11815,0.04824 -0.17906,0.06716 -0.0325,0.0332 -0.0737,0.05748 -0.10725,0.08996 -0.0316,0.03409 -0.062,0.07088 -0.0953,0.104705 -0.0516,0.05179 -0.11088,0.09494 -0.17013,0.137645 -0.0309,0.02206 -0.0623,0.04344 -0.0935,0.06501 -0.053,0.03655 -0.10421,0.06175 -0.15244,0.07718 -0.0195,0.01745 -0.0149,0.03647 -0.04,0.05322 l -0.0305,0.02034 -0.19623,0.131074 -0.1992,0.133052 c -0.0606,0.04045 -0.12086,0.08074 -0.18143,0.121187 -0.053,0.03543 -0.10641,0.07108 -0.15945,0.106497 -0.0534,0.03563 -0.10646,0.07119 -0.15986,0.10678 -0.0578,0.03853 -0.11566,0.07717 -0.1737,0.115387 -0.0582,0.03826 -0.11668,0.07641 -0.1759,0.11307 -0.0614,0.03766 -0.12364,0.07358 -0.18812,0.106066 -0.0537,0.02666 -0.10636,0.05456 -0.15707,0.08659 -0.0733,0.0413 -0.14817,0.08061 -0.22321,0.11876 -0.0392,0.02238 -0.0791,0.04352 -0.11891,0.0649 l -0.0856,0.05778 -0.14126,0.09435 c -0.0536,0.03187 -0.11019,0.05847 -0.1646,0.0891 -0.0503,0.02913 -0.0995,0.06074 -0.14834,0.09213 -0.0462,0.03315 -0.0979,0.05912 -0.1418,0.09535 -0.0149,0.02025 -0.0267,0.04276 -0.0387,0.06499 -0.0248,0.05467 -0.0563,0.105866 -0.0869,0.157262 -0.0439,0.07618 -0.10552,0.137136 -0.17203,0.193253 -0.0675,0.05418 -0.1387,0.104099 -0.20987,0.153446 -0.0286,0.01965 -0.0576,0.03887 -0.0864,0.05834 -0.0304,0.04721 -0.0521,0.09545 -0.1165,0.138471 l -0.4077,0.272317 -0.29055,0.194068 -0.30239,0.201979 -0.29604,0.19774 c -0.10815,0.07223 -0.19941,0.0812 -0.27822,0.06831 l -0.0228,0.01526 -0.17593,0.117514 -0.15522,0.103673 -0.14337,0.09576 -0.19497,0.130226 -0.1015,0.0678 c -0.0626,0.0418 -0.12234,0.06737 -0.17771,0.08079 0.001,0.02323 0.007,0.04782 -0.0277,0.07098 l -0.022,0.01469 c -0.0498,0.03319 -0.0996,0.0663 -0.14959,0.09928 -0.044,0.02892 -0.0878,0.05785 -0.1323,0.08584 -0.0447,0.02775 -0.0902,0.05463 -0.13646,0.07977 -0.0365,0.01983 -0.0725,0.04079 -0.10974,0.0594 -0.0391,0.01859 -0.0785,0.03557 -0.11852,0.052 -0.0386,0.02191 -0.0751,0.04687 -0.11187,0.07156 l -0.12646,0.08446 -0.1273,0.08503 -0.0165,0.01102 c -0.005,0.0054 -0.01,0.01087 -0.0148,0.01619 -0.0537,0.05673 -0.11607,0.104001 -0.1787,0.150319 -0.0699,0.05052 -0.14145,0.09881 -0.21288,0.14725 -0.0716,0.04842 -0.1433,0.09686 -0.2151,0.144935 -0.0689,0.04609 -0.13791,0.0921 -0.20681,0.138136 -0.0737,0.04921 -0.14711,0.09826 -0.22077,0.147458 -0.0731,0.04886 -0.14633,0.09774 -0.21949,0.146611 l -0.20301,0.135593 -0.1865,0.124577 -0.22881,0.152826 -0.21526,0.143785 c -0.0704,0.05029 -0.14697,0.09114 -0.22211,0.133825 -0.0407,0.02313 -0.0804,0.04734 -0.12047,0.07162 -0.0781,0.04733 -0.15104,0.07166 -0.21618,0.07869 l -0.0719,0.04802 -0.17805,0.118927 -0.17382,0.116102 -0.18524,0.123729 -0.20428,0.136442 -0.23345,0.155932 c -0.0236,0.01586 -0.0466,0.03089 -0.0702,0.04689 -0.0626,0.04248 -0.12538,0.08547 -0.18697,0.129304 -0.0492,0.03535 -0.0989,0.07086 -0.14295,0.112541 -0.0333,0.03505 -0.0632,0.07265 -0.0959,0.108284 -0.0416,0.05061 -0.0849,0.100183 -0.13606,0.141428 -0.0471,0.03149 -0.0939,0.06321 -0.14096,0.09478 -0.0479,0.03215 -0.096,0.06468 -0.14362,0.09719 -0.0484,0.03325 -0.0967,0.06641 -0.14366,0.101638 -0.0425,0.03246 -0.084,0.06644 -0.12298,0.102993 -0.0445,0.04138 -0.0903,0.08152 -0.14924,0.101582 -0.01,0.002 -0.0193,0.0031 -0.0287,0.004 l 3.6e-4,25.707745 c 0,6.67227 5.37116,12.0437 12.04343,12.0437 l 137.171188,2.5e-4 c 6.672268,0 12.043636,-5.37155 12.043636,-12.04382 l 1.73e-4,-33.815578 c -0.130655,-0.205121 -0.26339,-0.408988 -0.404779,-0.607225 l -0.650648,-0.94719 -0.60989,-0.887855 -0.501895,-0.73064 -0.469763,-0.683864 -0.603047,-0.877894 -0.307028,-0.446959 C 43.189017,63.08119 42.976502,62.916448 42.782772,62.632764 42.598485,62.362926 42.691732,62.499585 42.502897,62.222637 42.231857,61.82425 41.960818,61.42588 41.697142,61.022704 41.471181,60.674818 41.251295,60.322917 41.030285,59.971982 40.74867,59.536398 40.447753,59.113454 40.163025,58.679818 39.912523,58.30182 39.663724,57.922273 39.42619,57.536206 39.2471,57.247519 39.054338,56.96824 38.86032,56.68908 L 38.251918,55.803391 C 37.993823,55.427666 37.7359,55.052189 37.477804,54.676465 37.246295,54.339445 37.014642,54.002191 36.783125,53.665176 36.514246,53.273778 36.245086,52.882693 35.97616,52.491325 35.689481,52.074147 35.402961,51.656899 35.115941,51.239948 34.822767,50.814182 34.529353,50.388212 34.234317,49.963697 33.987299,49.609409 33.739594,49.25579 33.484468,48.907123 33.291197,48.64568 33.091964,48.388686 32.887386,48.135812 32.7539,47.955509 32.616541,47.778039 32.475452,47.603497 32.289014,47.366249 32.120719,47.1168 31.95135,46.867473 L 31.31766,45.94497 30.787204,45.172753 c -0.06787,-0.0988 -0.118482,-0.193325 -0.16124,-0.285923 -0.05132,-0.05831 -0.104214,-0.100516 -0.153522,-0.172297 -0.307148,-0.447136 -0.614236,-0.894172 -0.92138,-1.341311 -0.253499,-0.369043 -0.507259,-0.738371 -0.760726,-1.107436 -0.243372,-0.354376 -0.486474,-0.70861 -0.72966,-1.06311 -0.249769,-0.364179 -0.500052,-0.728431 -0.748621,-1.093408 -0.207687,-0.305333 -0.415899,-0.610217 -0.61488,-0.921167 -0.176153,-0.278774 -0.346814,-0.560738 -0.501201,-0.85178 -0.150071,-0.287598 -0.28432,-0.582925 -0.442231,-0.866527 C 25.590522,37.165148 25.432971,36.858097 25.261636,36.557603 25.058629,36.1918 24.844943,35.830912 24.615473,35.480422 24.405916,35.175358 24.196404,34.870343 23.986841,34.565282 23.775004,34.256913 23.56324,33.948524 23.351365,33.640181 Z M -52.517,34.575871 c 0.0021,-0.0022 -1.28e-4,-9.42e-4 -0.0065,0.0031 -0.0056,0.0034 -0.02822,0.01696 -0.04052,0.02454 0.0096,-0.0039 0.01864,-0.0065 0.0284,-0.01075 0.0102,-0.0089 0.01654,-0.01466 0.01864,-0.01687 z m -5.388231,-0.89131 c -0.05928,0.01975 -0.117886,0.04122 -0.177211,0.06087 -0.367445,0.231822 -0.737898,0.459207 -1.103931,0.693132 -0.664709,0.396712 -1.303656,0.827733 -1.9331,1.271607 0.765994,-0.462077 1.519328,-0.944103 2.284141,-1.408149 0.314415,-0.199217 0.620094,-0.411582 0.930101,-0.61746 z m -16.324447,15.367523 c -0.02423,0.0024 -0.04348,-0.0052 -0.06731,-0.0037 -0.001,0.01818 -0.0053,0.0348 -0.007,0.05269 0.02474,-0.01639 0.04961,-0.03257 0.07431,-0.049 z m -14.859609,9.853921 c -0.01353,0.0068 -0.02761,0.01236 -0.04108,0.01923 -0.200755,0.104528 -0.392779,0.224125 -0.583611,0.344957 -0.206134,0.131424 -0.410058,0.265712 -0.613895,0.400568 -0.08987,0.06558 -0.189496,0.118798 -0.278581,0.185443 -0.02129,0.01593 -0.04044,0.03805 -0.06103,0.05845 l 0.142102,-0.09492 0.219497,-0.146611 0.225841,-0.150848 0.214422,-0.143221 c 0.07104,-0.05036 0.145839,-0.09426 0.221595,-0.13727 0.05444,-0.03049 0.107903,-0.06253 0.161163,-0.09501 0.04613,-0.02814 0.08032,-0.02046 0.12242,-0.03375 0.02623,-0.01957 0.05273,-0.03881 0.07924,-0.05798 0.06351,-0.05033 0.127458,-0.09997 0.191917,-0.149039 z M -114.10792,42.868608 c -0.0704,-0.02243 -0.13971,-0.05016 -0.21022,-0.07251 l -2.1e-4,0.878997 c 0.0708,-0.26866 0.13996,-0.537761 0.21043,-0.806489 z m 11.59473,24.864747 c -0.0369,0.02424 -0.074,0.0479 -0.11085,0.07215 -0.0497,0.06768 -0.10404,0.131733 -0.1547,0.198732 l 0.13238,-0.08842 c 0.007,-0.01094 0.0139,-0.02181 0.0218,-0.0329 0.0348,-0.04871 0.069,-0.0975 0.10632,-0.144308 0.002,-0.002 0.004,-0.0033 0.005,-0.0053 z m -6.68724,-9.152136 c -0.0438,-0.04278 -0.0882,-0.08492 -0.13178,-0.128063 -0.0421,0.0077 -0.0796,0.01695 -0.11239,0.02769 -0.004,0.01743 -0.008,0.03491 -0.0122,0.05235 0.0695,0.01264 0.13258,0.02443 0.25633,0.04802 z m 0.83788,13.680864 -0.0452,0.03023 -0.18567,0.124012 c -0.0518,0.03782 -0.0988,0.08087 -0.14669,0.123256 0.0134,-0.0074 0.0269,-0.01463 0.0404,-0.02196 0.0443,-0.0241 0.0872,-0.05011 0.12994,-0.07669 0.0437,-0.02751 0.0873,-0.05559 0.13048,-0.08399 0.0238,-0.01573 0.0469,-0.03144 0.0706,-0.04717 -0.009,-0.009 0.01,-0.02808 0.01,-0.04205 -0.002,-9e-4 10e-4,-0.0047 -0.004,-0.0056 z m -5.87852,3.81087 c -0.005,0.0041 -0.0115,0.0068 -0.0162,0.01145 -0.004,0.0035 0.01,-0.0042 0.0136,-0.0072 2e-4,-2.17e-4 0.002,-0.0028 0.003,-0.0043 z"
       clip-path="url(#clipPath60)" />
    <rect
       style="opacity:1;fill:#240e28;fill-opacity:1;stroke:#fffefe;stroke-width:0;stroke-miterlimit:0"
       id="rect3"
       width="133.32341"
       height="53.406208"
       x="41.115353"
       y="250.10948"
       ry="8.3519154"
       transform="rotate(-52.54192,-37.85371,-18.141857)"
       clip-path="url(#clipPath59)" />
    <rect
       style="opacity:1;fill:#240e28;fill-opacity:1;stroke:#fffefe;stroke-width:0;stroke-miterlimit:0"
       id="rect4"
       width="126.84326"
       height="66.72142"
       x="-65.776924"
       y="95.915993"
       ry="9.4794474"
       transform="matrix(0.54696297,-0.8371568,0.81836383,0.57470048,-0.43083072,-37.156547)"
       clip-path="url(#clipPath58)" />
    <rect
       style="opacity:1;fill:#240e28;fill-opacity:1;stroke:#fffefe;stroke-width:0;stroke-miterlimit:0"
       id="rect5"
       width="220.4792"
       height="118.71558"
       x="-33.24065"
       y="142.69958"
       ry="16.866512"
       transform="matrix(0.57115887,-0.82083953,0.83484043,0.55049201,-0.43083072,-37.156547)"
       clip-path="url(#clipPath57)" />
    <path
       style="opacity:1;fill:#501c5a;fill-opacity:1;stroke:#fffefe;stroke-width:0;stroke-miterlimit:0"
       d="m 3.0737386,56.479947 c 0,-12.038808 0,-24.07762 0,-36.116429"
       id="path6"
       clip-path="url(#clipPath56)"
       transform="translate(-0.43083072,-37.156547)" />
    <path
       id="path7"
       style="opacity:1;fill:#501c5a;fill-opacity:1;stroke:#fffefe;stroke-width:0;stroke-miterlimit:0"
       d="m -1.7714681,-30.671513 c -0.036106,-0.0279 0.049779,0.08017 0.05426,0.125574 0.023819,0.241387 0.021043,0.484691 0.029972,0.727087 0.037622,1.021278 0.06846,2.043047 0.1286743,3.063379 0.1450708,2.971006 0.3269912,5.941302 0.260966,8.917802 0.015636,3.694696 0.00345,7.389397 0.017053,11.0840781 0.00484,0.9570317 4.7e-4,1.9140897 -0.00207,2.8711425 0.1666497,0.225707 0.2796579,0.5508458 0.30902502,0.9653158 0.073323,-0.031043 0.14981577,-0.047026 0.22634277,-0.047026 0.2142524,0 0.42825083,0.122041 0.5720581,0.3653524 0.051461,-0.00129 0.10322668,0.00324 0.15451254,-0.00103 0.2562336,-0.026815 0.51269531,-0.04949 0.76997884,-0.063045 0.37074383,-0.015439 0.74158523,-0.018494 1.11259363,-0.021704 0.2914801,-0.014814 0.5815072,-0.046178 0.8717814,-0.075964 C 2.4939619,-6.4789665 2.2491952,-10.198859 2.0624026,-13.92111 c 0.00131,-0.734313 4.845e-4,-1.468647 0.00362,-2.202966 0.067065,-2.971649 -0.078841,-5.939061 -0.2020549,-8.90695 -0.034115,-1.011985 -0.072065,-2.024047 -0.089917,-3.036507 -0.0042,-0.237977 -0.013868,-0.476246 -0.00723,-0.714169 0.00111,-0.04004 0.068971,-0.107123 0.029972,-0.116272 -0.6006366,-0.140896 -1.20600951,-0.260329 -1.81229253,-0.375171 -0.58369425,-0.468231 -1.16386027,-0.940854 -1.75596517,-1.398364 z m 3.922758,30.21417657 c -0.2175976,0.0114119 -0.4356381,0.0264114 -0.6511231,0.0599447 -0.1189753,0.0204428 -0.2341471,0.0457852 -0.3400309,0.10645345 -0.24194448,0.10670553 -0.49753167,0.18584545 -0.76119384,0.21549072 -0.12445849,0.0068885 -0.24905338,0.0051665 -0.37362061,0.0051676 0.01617663,0.19902525 0.03814207,0.39740607 0.05684408,0.59634603 0.01368231,0.21468302 0.0338669,0.42842586 0.06046142,0.64182133 0.002995,0.012564 0.00579,0.02516 0.008785,0.037724 0.14061443,0.5899548 -0.0366099,0.9878514 -0.31264242,1.1523844 0.002342,0.018251 0.007574,0.035995 0.009819,0.05426 0.0319936,0.3060568 0.0391794,0.6139414 0.045992,0.9213907 0.0060818,0.3283575 0.006832,0.6570668 0.0077515,0.9854696 8.3723e-4,0.3444208 0.0013812,0.6885903 0.0015503,1.0330119 1.2981e-4,0.31508 -2.618e-5,0.6300819 0,0.9451619 -0.0049895,0.260977 0.01039283,0.5226074 0.04495849,0.7813477 0.04452122,0.2906012 0.08265644,0.5818862 0.10697022,0.874882 0.01929274,0.2159404 0.06339455,0.4256836 0.11678873,0.6351033 0.10103752,0.3544091 0.13820856,0.7202289 0.16639812,1.0862387 0.0238772,0.3735164 0.0319048,0.7477384 0.0377238,1.1218954 0.004478,0.326279 0.00528,0.652963 0.006201,0.979268 7.1947e-4,0.297491 8.9452e-4,0.594961 0.001034,0.892452 1.1817e-4,0.352941 -1.79e-5,0.705908 0,1.05885 1.538e-5,0.367036 -2.57e-6,0.734188 0,1.101225 2.2e-6,0.390693 5.1648e-4,0.781329 5.1677e-4,1.172022 0.009593,0.417766 -0.006238,0.833963 -0.0356567,1.250569 -0.0545844,0.39999 -0.0819805,0.802706 -0.12298991,1.204061 -0.0365314,0.315693 -0.0761969,0.631108 -0.0976685,0.948263 -0.0169879,0.270624 -0.0216892,0.541811 -0.0258382,0.81287 -0.0045411,0.377242 -0.0045251,0.754449 -0.0051676,1.131714 -0.01341518,0.330455 0.0087045,0.658503 0.05374349,0.98547 0.0287446,0.304029 0.0861932,0.600402 0.14882813,0.898653 0.0937479,0.343568 0.15653992,0.69287 0.20050455,1.045931 0.0477472,0.455482 0.0542773,0.913983 0.0630453,1.371492 0.006819,0.380853 0.009311,0.761662 0.0108521,1.142566 8.7e-5,0.163015 -0.001791,0.325621 0.008268,0.488342 0.0506906,0.819975 -0.25043988,1.330211 -0.63923747,1.526522 0.22546097,0.456234 0.29505636,1.110251 0.08061524,1.928048 -0.12895502,0.491785 -0.15147889,1.010059 -0.19275309,1.51567 -0.0433285,0.57253 -0.0658833,1.146471 -0.0826823,1.720308 -0.0128169,0.474446 -0.0142555,0.9491 -0.0165365,1.423686 -0.009415,0.265501 0.004646,0.530201 0.0821655,0.784965 0.0840426,0.330281 0.18879306,0.654571 0.28473715,0.981335 0.14361788,0.39342 0.24158956,0.800673 0.31781005,1.211813 0.0653384,0.395143 0.0894461,0.795131 0.10645345,1.194759 0.0145165,0.412528 0.015708,0.825436 0.01757,1.238167 0.001813,0.500774 0.002226,1.001457 0.002584,1.502234 2.7031e-4,0.433615 -5.198e-5,0.867082 0,1.300696 -0.0167655,0.407974 -0.0662717,0.813209 -0.0925008,1.220597 -0.0202284,0.327974 -0.0287244,0.656972 -0.0341065,0.98547 -0.005714,0.398092 -0.006274,0.796117 -0.007235,1.194242 -9.5287e-4,0.477994 -0.001382,0.956026 -0.00155,1.434021 -1.4291e-4,0.450611 2.553e-5,0.901243 0,1.351855 -1.026e-5,0.198253 4.99e-6,0.396543 0,0.594796 -2.179e-5,0.865934 -0.25683914,1.476587 -0.61908366,1.835547 2.6961e-4,0.04995 0.001838,0.09991 0.002067,0.149862 0.17688602,0.291501 0.31793866,0.661197 0.39842529,1.116727 0.0130312,0.07375 0.026243,0.147425 0.0392741,0.221175 0.07708,0.399166 0.15168338,0.801085 0.17363281,1.207162 L 3.2840373,56.388289 C 3.1163246,52.433448 2.9782327,48.479289 2.9011149,44.521313 2.8738813,40.750802 2.8179382,36.979316 2.5771037,33.215544 2.4114628,31.232095 2.2539076,29.248873 2.1657593,27.260352 c -0.049992,-1.404766 -0.038841,-2.810443 -0.038241,-4.215764 0.0074,-1.24256 -0.01434,-2.485022 -0.029972,-3.727421 l 1.8350301,0.929659 C 3.6582882,13.394645 3.3070345,6.5460867 2.8861287,-0.29868978 2.780522,-0.33046232 2.6754496,-0.36401971 2.5693522,-0.39377441 c -0.1344554,-0.0419387 -0.2774695,-0.072984 -0.4180623,-0.063562 z"
       clip-path="url(#clipPath55)"
       transform="translate(-0.43083072,-37.156547)" />
    <path
       id="path8"
       style="opacity:1;fill:#501c5a;fill-opacity:1;stroke:#fffefe;stroke-width:0;stroke-miterlimit:0"
       d="m 78.788989,-3.4307983 c -2.339454,0.042467 -4.569816,0.4965708 -6.609932,1.6541626 -0.209879,0.1578379 -0.344894,0.291627 -0.488342,0.4283976 0.346348,0.01445 0.692721,0.030603 1.039213,0.039791 0.462864,0.010749 0.925579,0.012329 1.388545,0.014469 0.181992,6.498e-4 0.223357,9.047e-4 0.269751,0.00103 0.183592,-0.1207917 0.440632,-0.2015381 0.779281,-0.2015381 h 0.738456 1.047481 0.815971 0.871782 1.059367 1.130163 c 0.430621,-0.00741 0.860788,0.014323 1.290877,0.032039 0.322315,0.014331 0.644813,0.022345 0.967383,0.027905 0.327067,0.00486 0.654239,0.00585 0.981336,0.00672 0.365592,7.888e-4 0.731497,8.671e-4 1.09709,0.00103 0.271798,1.19e-4 0.543656,4.911e-4 0.815454,5.168e-4 0.35168,2.13e-5 0.703037,-3.1e-6 1.054716,0 0.423079,2.8e-6 0.846095,-5e-7 1.269174,0 0.507986,-0.010971 1.016027,-0.030621 1.523938,-0.044442 0.39233,-0.0097 0.784761,-0.01547 1.177189,-0.01912 0.402017,-0.00697 0.803275,-0.00199 1.205094,0.010852 0.499743,0.011286 0.999036,0.035753 1.4981,0.063045 0.57448,0.033499 1.148755,0.063871 1.723926,0.083199 0.353887,0.00996 0.707772,-0.00315 1.061434,-0.013953 0.0049,-1.5e-4 0.008,0.00167 0.01292,0.00155 0.148619,-0.049872 0.322661,-0.081132 0.52865,-0.081132 h 1.074869 1.207679 1.161166 C 96.840811,-2.0510725 93.185152,-2.5929919 89.508748,-2.9538249 85.94384,-3.2637104 82.365844,-3.3660053 78.789506,-3.4307983 Z m 95.542491,2.2582601 c -0.2241,0.00106 -0.44821,0.00184 -0.67231,0.0031 0.24267,0.43547496 -0.095,1.02854252 -1.02371,1.03972985 -0.36159,0.004356 -0.72276,0.009945 -1.08417,0.0232544 -0.46848,0.01773458 -0.93717,0.04277778 -1.40612,0.04082438 -0.49424,0.001671 -0.98842,0.003637 -1.4826,0.01136882 -0.53317,0.0090313 -1.06644,0.02154565 -1.59938,0.03979085 C 166.62876,-3.7773528e-4 166.19456,0.0034316 165.75991,0 h -0.91261 -1.1374 -1.26038 -1.49035 c -0.40393,8.946089e-7 -0.80787,-6.6263676e-6 -1.21181,0 -0.20716,3.6873507e-6 -0.41442,6.8038575e-6 -0.62167,0 -0.0479,0.00826007 -0.0957,0.01758535 -0.14366,0.02583822 -1.49015,0.2378791 -2.99885,0.31053465 -4.50515,0.34829915 -1.24379,0.15807613 -2.48914,0.27682282 -3.74138,0.34054769 -1.38428,0.0557523 -2.77013,0.0577215 -4.1553,0.0625285 -1.73403,0.0102719 -3.46824,0.00596 -5.20227,5.1677e-4 -0.0715,5.624e-5 -0.14296,9.5606e-4 -0.21445,0.001034 -0.0307,-0.001669 -0.0613,-0.004545 -0.092,-0.006201 -2.98991,-0.16817316 -5.98515,-0.25569117 -8.96793,-0.54053548 -0.112,-0.007358 -0.22341,-0.0206459 -0.33538,-0.028422 h -0.89917 -1.02681 -0.79891 -0.74001 -0.82476 -0.79788 -0.8754 -0.94568 -0.88935 -0.87798 -0.6718 -0.65835 -0.69247 -0.60513 c -0.26612,-1.5e-7 -0.4823,-0.0498837 -0.65267,-0.12919108 -0.47276,0.03616914 -0.94499,0.07854447 -1.41749,0.11782227 -0.47851,0.0452839 -0.95915,0.0864217 -1.44022,0.0795817 -0.43706,-1.236e-5 -0.87397,8.18e-5 -1.31103,0 -0.30875,-9.125e-5 -0.61729,-5.7564e-4 -0.92604,-0.001034 -0.35582,-6.48e-4 -0.71183,-0.001539 -1.06764,-0.004134 -0.3309,-0.003107 -0.66201,-0.007595 -0.9927,-0.0201538 -0.32885,-0.0125639 -0.65701,-0.0311387 -0.98547,-0.0511597 -0.36082,-0.005308 -0.72156,-0.0133793 -1.0821,-0.0289388 -0.35133,-0.0166352 -0.70276,-0.0394806 -1.05472,-0.0315226 -0.3699,-7.48e-4 -0.73959,-0.001868 -1.10949,-0.005168 -0.3692,-0.003581 -0.73858,-0.006555 -1.10743,-0.0242879 -0.26512,-0.01424898 -0.53023,-0.03808129 -0.79582,-0.03772379 h -0.97048 -1.07849 -1.27847 -1.50224 -1.17874 -1.192687 -1.207679 -1.074869 c -0.004,0 -0.0074,-4.9456e-4 -0.01137,-5.1677e-4 -0.137748,0.04536639 -0.299132,0.0739741 -0.484725,0.07958171 -0.385526,0.0116548 -0.771279,0.0253663 -1.157036,0.0139526 C 94.799279,0.14097214 94.214343,0.11002084 93.629427,0.07596435 93.141601,0.04928735 92.653934,0.0253071 92.165434,0.0144694 91.784176,0.00222067 91.402773,-0.0021221 91.021318,0.00465088 90.637808,0.00820433 90.254416,0.01329823 89.871,0.02273763 c -0.521445,0.0141684 -1.042696,0.03478091 -1.564245,0.0449585 -0.423082,-4.3e-7 -0.846091,2.82e-6 -1.269174,0 -0.351722,-3.08e-6 -0.703509,2.133e-5 -1.055232,0 -0.271992,-2.572e-5 -0.54398,1.1902e-4 -0.815971,0 C 84.7997,0.06751863 84.43338,0.06745746 84.066703,0.0666626 83.732332,0.065772 83.397487,0.06495956 83.063147,0.05994466 82.728673,0.05415674 82.394319,0.0453153 82.060107,0.0304891 81.650502,0.01361615 81.240845,-0.00748282 80.830725,0 H 79.700562 78.641195 77.769413 76.953442 75.905961 75.37266 c -0.183853,0.11979593 -0.434708,0.20300958 -0.772562,0.20205485 -0.321369,-9.085e-4 -0.158664,-3.7345e-4 -0.488343,-0.00155 -0.473913,-0.002196 -0.947811,-0.004384 -1.421618,-0.0155029 C 72.282122,0.17410355 71.874209,0.1558082 71.466439,0.1390096 70.956325,0.1242692 70.446004,0.13296848 69.935783,0.12195638 69.489766,0.11428931 69.043412,0.10430384 68.59788,0.081132 68.263924,0.06503722 67.930193,0.06580643 67.595874,0.06769613 h -1.056783 c -0.448306,2.7e-7 -0.896315,-1.4e-6 -1.344621,0 -0.402125,1.65e-6 -0.804519,-1.157e-5 -1.206644,0 -0.467017,1.486e-5 -0.933931,4.4487e-4 -1.400949,5.1676e-4 -0.497826,9.176e-5 -0.995622,9.62e-6 -1.493448,5.1676e-4 -0.508399,5.9021e-4 -1.017096,0.0012639 -1.525489,0.0041341 -0.424721,0.0030566 -0.84927,0.0070727 -1.273824,0.02015381 -0.31942,0.01145779 -0.638458,0.03046801 -0.957047,0.05632731 -0.220395,0.008066 -0.440589,0.0210074 -0.660425,0.0387573 -0.295899,0.0196547 -0.591865,0.0170939 -0.888318,0.0155029 h -1.100708 -0.921391 c -0.11813,0 -0.223198,-0.0124388 -0.322461,-0.0299723 -0.07564,0.009408 -0.138733,0.0299725 -0.224275,0.0299723 -0.533511,-1.04e-6 -1.066909,5.09e-6 -1.60042,0 -0.44033,-5.46e-6 -0.881036,4.445e-5 -1.321366,0 -0.422801,-4.786e-5 -0.845339,-2.4075e-4 -1.26814,-5.1676e-4 -0.434314,-3.3e-4 -0.868968,-2.7236e-4 -1.303279,-0.002067 -0.363194,-0.00172 -0.726307,-0.002743 -1.089339,-0.0149862 -0.324244,-0.0128516 -0.648097,-0.032139 -0.970484,-0.07028 -0.317212,-0.03977478 -0.632102,-0.09724853 -0.950329,-0.12815755 -0.33834,-0.03856867 -0.67555,-0.08327065 -1.014926,-0.11265463 -0.410096,-0.0404315 -0.822005,-0.0690912 -1.234033,-0.0785482 -0.363996,1.2e-6 -0.727927,-7.62e-6 -1.091923,0 -0.367944,9.07e-6 -0.735864,-5.546e-5 -1.103808,0 -0.274995,5.659e-5 -0.549762,1.278e-4 -0.824756,5.1676e-4 -0.279858,4.73e-4 -0.559889,7.6992e-4 -0.839742,0.002584 -0.325535,0.002525 -0.651251,0.006134 -0.976685,0.0149862 -0.299757,0.009314 -0.598975,0.026468 -0.898136,0.0475423 -0.286712,0.0130331 -0.57378,0.009863 -0.860413,0.0258382 -0.215001,0.01268521 -0.430057,0.02909125 -0.641304,0.07338054 -0.244179,0.05418843 -0.484926,0.12672127 -0.735356,0.14831136 -0.232241,0.0194191 -0.464469,0.0323582 -0.697632,0.0237712 -0.246766,-0.002134 -0.493906,-0.004499 -0.740523,-0.0139526 C 32.784648,0.10820879 32.511346,0.09643931 32.24351,0.0423748 32.105482,0.01271384 31.968849,-0.02208098 31.834233,-0.06304512 31.651571,-0.07638512 31.467922,-0.0631922 31.284912,-0.06769602 31.2285,-0.0690853 31.178375,-0.0762808 31.126265,-0.08164876 30.920543,0.05046597 30.625611,0.12334529 30.226579,0.0594279 30.098372,0.03889109 29.969538,0.03064657 29.840039,0.02067057 29.61295,0.00194925 29.38588,-0.00611801 29.15791,0 c -0.202346,1.3374773e-5 -0.404336,-9.2025957e-5 -0.606681,0 -0.208926,1.0813142e-4 -0.41791,5.263733e-4 -0.626835,0.00103353 -0.214539,6.415e-4 -0.429368,0.00112166 -0.643889,0.00413411 -0.282587,0.00445963 -0.565097,0.01173402 -0.847493,0.0232544 -0.440266,0.0190873 -0.879812,0.04716852 -1.319816,0.07131347 -0.479907,0.01829526 -0.959975,0.03985525 -1.437639,0.09198405 -0.410635,0.0384103 -0.822072,0.061469 -1.232999,0.0961182 -0.367583,0.0335355 -0.735771,0.0608223 -1.103292,0.0950846 -0.302115,0.0184625 -0.604114,0.0315769 -0.906921,0.0242879 -0.361263,-9.973e-5 -0.722392,-9.174e-5 -1.083655,-5.1677e-4 -0.397643,-5.27e-4 -0.795575,-7.3545e-4 -1.193209,-0.003617 -0.421895,-0.003421 -0.843767,-0.008639 -1.265556,-0.0191203 -0.358006,-0.009265 -0.715913,-0.021306 -1.073319,-0.0444417 h -0.951363 -1.124996 -0.960665 c -0.340737,-7.8e-7 -0.681423,4.89e-6 -1.02216,0 -0.313255,-5.96e-6 -0.626739,3.01e-5 -0.939994,0 C 10.503591,0.33947665 10.190237,0.3392644 9.8763997,0.3389974 9.5722283,0.3386894 9.2679629,0.3387711 8.9637939,0.3374471 8.9117634,0.33715537 8.8597592,0.33530109 8.8077311,0.33486328 8.0265448,0.39058553 7.2457722,0.45064734 6.4657552,0.51779785 4.4131646,0.60651386 2.3606685,0.76459621 0.30592448,0.75964355 L 3.5031453,3.0824992 c 2.0280331,-0.09848 4.055336,-0.2369305 6.0854167,-0.3152263 2.004563,-0.2027783 4.022964,-0.2544105 6.025989,-0.4640543 2.19096,-0.2612708 4.398797,-0.3211648 6.602698,-0.368453 2.740065,-0.04555 5.480837,-0.051919 8.221203,-0.056327 2.64192,0.00718 5.283687,0.014975 7.925615,0.019637 2.117124,0.00534 4.234497,0.017192 6.35155,-0.00258 3.207163,0.044633 6.409453,-0.077426 9.613367,-0.1984375 5.530784,-0.2139494 11.066448,-0.2307089 16.600537,-0.2444295 0.816664,5.143e-4 1.633315,0.00105 2.449979,0.00103 0.488973,0.2260377 0.98657,0.4482048 1.521354,0.7446574 1.726764,0.1806329 3.472912,0.1063289 5.206401,0.091984 1.351331,-0.047151 2.701349,-0.025004 4.050399,0.024288 0.27263,0.4879414 0.593629,0.9496562 0.979268,1.3756266 1.370298,1.4929945 3.47151,2.620356 5.296318,3.6452556 0.304929,0.2131294 0.600304,0.4398115 0.907955,0.649056 0.168831,0.1148289 0.338046,0.2294375 0.506945,0.344165 0.06492,0.05467 0.138329,0.098842 0.204122,0.1524455 -0.783924,0.1034045 -1.568684,0.2008011 -2.352311,0.3064412 -1.799097,-0.1451649 -3.601278,-0.2483133 -5.410522,-0.234611 -0.84987,-0.010676 -1.699776,-0.032412 -2.549715,-0.032039 -0.674071,2.911e-4 -2.002446,-0.6396829 -2.022099,0.034107 -0.0018,0.063339 0.01271,0.1053666 0.01344,0.1653645 -0.609668,-0.1150929 -1.457509,-0.325915 -1.121379,-0.080098 0.377251,0.2758856 0.77372,0.5255948 1.178739,0.7627441 0.06788,0.305368 0.19264,0.5329645 0.340031,0.7286375 -3.642165,0.531489 -7.282135,1.078873 -10.918196,1.650546 -0.468767,0.11697 -1.753205,0.01479 -1.406116,0.350883 0.47496,0.459911 1.01425,0.856616 1.578715,1.21698 0.474359,0.497794 1.270948,0.9585 1.914612,0.977718 0.28724,0.112652 0.574394,0.22723 0.86713,0.315226 1.179801,0.354644 2.463309,-0.0571 3.694865,-0.08837 1.644205,-0.04175 3.288411,-0.08521 4.932516,-0.130741 6.014349,-0.16654 5.783128,-0.165966 11.838554,-0.360185 2.888861,-0.09375 5.778058,-0.174328 8.667164,-0.259416 0.11016,0.04266 0.21986,0.08696 0.33022,0.129708 0.12604,0.133499 0.26579,0.247237 0.37103,0.412895 0.0307,0.06473 0.0583,0.130751 0.092,0.194303 -0.005,0.531971 -0.02,1.065047 -0.032,1.593185 -0.005,0.23324 -0.0163,0.466411 -0.015,0.699699 2.7e-4,0.05731 0.0631,1.365422 0.0992,1.383894 0.048,0.02457 0.0624,0.0388 0.10904,0.06305 0.0359,0.294272 0.35045,0.37482 1.03766,0.600997 1.84195,1.095164 2.26912,1.604493 2.40347,1.056266 0.007,0.0037 0.009,0.0036 0.016,0.0072 0.0418,0.02221 0.0255,-0.02383 -0.002,-0.08682 0.0287,-0.142751 0.0572,-0.235971 0.0935,-0.500228 0.0107,-0.882183 0.20857,-1.816348 -0.005,-2.689241 -0.0511,-0.208262 -0.14115,-0.404657 -0.21808,-0.605131 0.006,-0.748506 -0.0126,-1.496078 -0.1142,-2.23759 -0.0131,-0.0484 -0.028,-0.09621 -0.0393,-0.145211 0.47065,-0.0128 0.94115,-0.03 1.4118,-0.04237 0.95536,-0.02512 1.91191,-0.02501 2.86649,-0.0708 0.40264,-0.01931 1.46795,0.178821 1.20251,-0.12454 -0.94908,-1.084656 -2.34286,-1.678366 -3.51452,-2.517676 -0.59889,-0.01915 -1.19873,-0.02056 -1.79679,-0.05736 -1.39611,-0.08591 -2.79009,-0.21648 -4.18527,-0.322977 -1.13656,-0.364092 -2.301694,-0.6318543 -3.215303,-0.781865 -0.194225,-0.026501 -0.389662,-0.04542 -0.583944,-0.07183 4.150247,-0.5525864 8.304517,-1.0736963 12.464347,-1.5358236 7.85274,-0.8005587 15.69707,-1.5906663 23.58616,-1.938383 1.16876,-0.051514 3.019,0.9739328 3.52485,-0.051676 0.44857,0.081991 0.83401,0.1373653 0.62322,-0.058394 -0.15576,-0.1446562 -0.32498,-0.2788074 -0.48938,-0.4170288 0.20212,-0.8465784 -0.20687,-1.3184336 -0.87023,-1.5601115 2.91405,0.028297 5.82844,0.043236 8.74262,0.049609 -1.82687,0.3931098 -3.678,0.6795553 -5.47925,1.1756388 -0.4528,0.3153701 -0.78138,0.4035656 -0.88574,1.0123414 -0.22134,1.2911431 1.14533,4.1325847 1.61438,5.3283577 0.0925,0.238605 0.18282,0.477716 0.27543,0.716235 -2.62085,0.806834 -5.2395,1.622642 -7.85068,2.452564 -1.50228,0.524884 -3.00942,1.035616 -4.5067,1.57458 -7.23517,2.604384 -0.93724,0.387831 -6.75515,2.565735 -0.52052,0.194852 -1.71156,0.05162 -1.66915,0.501778 -0.34421,0.04734 -0.61708,0.110967 -0.44596,0.273886 0.2544,0.242196 0.52816,0.467329 0.817,0.67386 0.8884,1.910549 1.71102,1.754326 2.78071,1.297079 0.0368,0.0098 0.0727,0.0253 0.10955,0.03462 0.0559,0.01413 0.10906,-0.0067 0.16382,-0.0067 -0.28151,0.134141 -0.56412,0.265954 -0.84543,0.400492 -0.35449,0.154633 -0.7123,0.301544 -1.06608,0.457853 -1.84647,0.815839 -4.4743,2.05807 -6.37274,2.948141 0.0104,0.0034 0.009,0.0054 0.0186,0.0088 -0.85491,0.144256 -1.87185,0.160522 -1.97404,0.860413 -0.67034,0.09691 -1.19092,0.209022 -0.91467,0.40566 0.0965,0.06869 0.20144,0.131019 0.30024,0.198437 -0.33808,0.178699 -0.68916,0.332822 -1.02113,0.522965 -0.2249,0.128818 -0.86805,0.30083 -0.64543,0.433566 1.18574,0.707009 1.97542,1.171885 2.59829,1.479496 0.2195,0.191399 0.41733,0.369621 0.70486,0.603064 0.11246,0.0913 0.21383,-0.05763 0.31885,-0.218075 0.93121,0.211596 1.63801,-0.116945 3.63802,-0.627351 1.57717,-0.448724 3.14956,-0.913695 4.72529,-1.367359 0.5995,0.358152 1.2055,0.706932 1.82056,1.033012 0.11845,0.0628 0.25238,0.08894 0.37724,0.136426 -0.12219,0.0833 -0.24552,0.165082 -0.35192,0.269751 -0.17347,0.170659 0.0756,0.583692 0.30593,0.662492 1.09072,0.373295 2.21112,0.646047 3.33726,0.899686 -0.20262,0.127741 -0.395,0.267857 -0.55655,0.445451 -0.19448,0.213777 0.80754,0.352545 0.86454,0.06925 0.0299,-0.148435 0.0228,-0.296376 0.004,-0.443901 0.82394,0.183532 1.65001,0.359637 2.46755,0.564823 0.72797,-0.125954 1.45135,-0.275715 2.17816,-0.407727 0.0426,0.01074 0.0855,0.02029 0.12816,0.03101 -1.67712,0.727741 -3.36893,1.464554 -4.8178,2.135787 -1.19864,0.55531 -2.37426,1.158173 -3.56154,1.737362 -1.88942,1.278523 -3.81223,1.962777 -0.5209,2.897497 0.27937,0.196013 0.59823,0.241431 0.92656,0.231511 0.38687,0.09111 0.73687,0.179662 1.22628,0.276986 0.80731,0.160544 1.56907,-0.501686 2.33785,-0.795818 3.89223,-1.48916 7.69382,-3.213087 11.57655,-4.729427 0.95085,0.228676 1.89926,0.467833 2.84996,0.697115 0.11021,0.05535 0.21922,0.07941 0.32607,0.07958 1.83291,0.442522 3.66599,0.88468 5.49476,1.344621 1.25742,0.299185 2.47895,0.741299 3.7362,1.040763 0.35603,0.0848 0.86259,0.224846 1.24179,0.07235 0.20664,-0.08311 0.3696,-0.248397 0.55449,-0.372587 1.53492,-1.811894 2.95543,-3.720381 4.3372,-5.650818 0.94167,-1.410145 1.72651,-2.952833 2.94194,-4.150651 1.25627,-0.466292 2.51386,-0.928352 3.76359,-1.411283 0.40297,-0.155715 0.82297,-0.281051 1.19735,-0.496611 0.10904,-0.06278 0.32122,-0.25522 0.2098,-0.313676 -0.40143,-0.210623 -0.82335,-0.378154 -1.23816,-0.560689 0.0868,-0.06007 0.17194,-0.122566 0.2589,-0.182418 1.06739,-0.297242 2.12552,-0.626996 3.1967,-0.910022 0.416,-0.109915 0.84419,-0.177872 1.2516,-0.316259 0.0808,-0.02746 0.26536,-0.135709 0.18862,-0.173116 -0.54983,-0.268005 -1.1143,-0.503756 -1.67793,-0.741557 0.40033,-0.323333 0.78541,-0.665195 1.17305,-1.004073 1.71242,-1.100236 3.44208,-2.172475 5.21002,-3.182753 0.59959,-0.342627 1.20765,-0.670318 1.80816,-1.011307 0.42356,-0.240504 0.87676,-0.437858 1.264,-0.733288 0.18895,-0.14415 0.29074,-0.375804 0.43615,-0.56379 -1.22608,-0.825054 -2.29924,-1.942848 -3.67781,-2.475301 -0.38556,-0.148914 -0.79853,-0.01614 -1.21233,0.131258 -0.23805,-0.07906 -0.47741,-0.143976 -0.71572,-0.220142 -0.2041,-0.312922 -0.41901,-0.626137 -0.61598,-0.93896 0.66044,-0.292449 1.25941,-0.571425 1.47226,-0.730705 0.12737,-0.09531 0.085,-0.3066398 0.12764,-0.4599208 -0.88873,-0.3594981 -1.75115,-0.8056641 -2.63188,-1.1916586 0.0561,-0.033046 0.17019,-0.077586 0.20154,-0.1054199 0.0386,-0.034297 0.0359,-0.090777 0.0444,-0.1410767 0.0715,-0.032719 0.18028,-0.087077 0.25012,-0.1188557 1.41551,-0.6440536 2.85747,-1.2292899 4.28604,-1.8438151 0.61948,-0.2252724 1.14472,-0.3764524 1.60094,-0.521932 0.18592,0.00155 0.37166,0.01115 0.55758,0.012402 0.47601,0.00287 0.97192,0.00454 1.44953,0.012402 0.10691,0.00175 0.21351,0.00459 0.32039,0.00775 0.70971,0.2721132 0.0104,-0.2009081 -1.46244,-1.2283488 0.8343,0.00456 1.66844,0.024315 2.50269,0.028939 2.19398,0.011179 4.38805,0.018269 6.58203,0.028422 0.57056,0.016518 0.8752,-0.038095 1.07693,-0.1193726 0.0135,0.00561 0.0245,0.0078 0.008,-0.00413 0.96736,-0.4059971 -1.91346,-1.8146203 -3.53208,-2.6964762 -1.24854,-0.4876143 -2.48114,-1.00397139 -3.73155,-1.49396569 -1.49557,-0.66452501 -3.07007,-1.08071362 -4.68344,-1.32395021 -0.98592,-0.1370314 -1.98193,-0.1399843 -2.97501,-0.1395263 z m 3.18688,2.3161376 c 0.97521,0.00619 1.95314,0.02634 2.91921,0.1741496 1.23392,0.2062073 2.42679,0.5630939 3.59461,1.0014893 -1.83855,0.011009 -3.67737,0.021801 -5.51594,0.024805 -1.09457,5.137e-4 -2.18895,-0.00616 -3.28353,-0.010852 -0.0714,-0.030971 -0.13891,-0.06731 -0.21135,-0.096635 -1.2453,-0.4575325 -2.52295,-0.8199975 -3.82199,-1.0862386 1.10234,2.365e-4 2.20445,0.00111 3.30677,0.00207 1.00396,-0.00449 2.00825,-0.00796 3.01222,-0.00879 z M 74.446102,1.4541748 c 0.05374,-1.05e-5 0.107487,1.17e-5 0.16123,0 0.07504,0.047415 0.153817,0.088806 0.22841,0.1369426 0.0824,0.053176 -0.200995,-0.0047 -0.290421,-0.044958 -0.05511,-0.024813 -0.08497,-0.056425 -0.09922,-0.091984 z m 20.279382,0.026872 c 0.882127,0.00237 1.764224,0.00534 2.64635,0.00775 1.34532,0.02022 2.690436,0.040683 4.035926,0.040824 1.76297,0.00352 3.52613,-0.00602 5.28909,-0.00465 0.42978,-0.00792 0.85483,0.035852 1.28261,0.050643 3.34682,0.6295817 6.70334,1.2359449 10.10325,1.4133504 0.22237,0.030286 0.44279,0.071349 0.6656,0.099219 2.62291,0.3625164 5.26464,0.5465294 7.90856,0.6609416 0.25794,0.025125 0.517,0.028563 0.77514,0.050126 C 123.19091,3.7271638 118.95077,3.6178413 114.71444,3.399792 109.32857,3.1131078 103.94332,2.8087014 98.6038,2.004012 97.309968,1.8364905 96.018307,1.65464 94.725484,1.4810468 Z m -7.645528,1.0113078 c 1.233309,0.0898 2.467166,0.1754145 3.697449,0.2986898 3.590274,0.5388038 7.191121,0.9855446 10.794685,1.4267863 5.18777,0.7933352 10.42657,1.0192131 15.66003,1.280542 -2.54377,0.2774758 -5.0957,0.5677464 -9.41648,1.0531657 -4.82927,0.534653 -9.650656,1.1334867 -14.468366,1.7611328 C 92.581683,7.8200783 91.791372,7.3679842 90.998063,6.9194743 90.373716,6.4559947 89.269277,5.6650048 88.756856,5.1908976 88.001289,4.4159347 87.446038,3.500222 87.079956,2.4923546 Z m 69.199914,1.9854086 c 2.65634,0.00117 5.30013,0.1826334 7.93956,0.4666381 2.06529,0.2787819 4.13895,0.4382781 6.21668,0.5627564 -0.59825,0.2414642 -1.19339,0.4900718 -1.78956,0.7363891 0.19185,0.015759 0.28188,0.037299 0.21188,0.093018 -0.0734,-0.029354 -0.14568,-0.062393 -0.21963,-0.089917 -0.0238,0.00982 -0.0476,0.019621 -0.0713,0.029456 -0.0192,-0.01632 -0.0509,-0.02989 -0.0687,-0.046509 0.0542,0.00488 0.0762,0.00775 0.12092,0.011369 -0.37041,-0.1369541 -0.74645,-0.2542309 -1.13585,-0.3286621 -0.95077,-0.1817346 -1.90591,0.3420984 -2.85564,0.5291667 -1.09563,0.215807 -2.19031,0.4370308 -3.28145,0.6743774 -0.004,-0.00367 -0.002,-0.00608 -0.006,-0.00982 -0.22092,-0.1809527 -0.4604,-0.3460482 -0.7028,-0.506429 -0.66496,-2.7189159 -2.32772,-1.7187145 -3.61012,-1.1131104 -0.80444,0.379889 -1.60448,0.7696259 -2.40657,1.1544515 -5.03665,2.4585496 -2.34737,1.1541239 -8.07031,3.9057051 -0.21789,0.106275 -0.43337,0.217427 -0.65112,0.324011 -0.88798,0.251688 -1.77914,0.491615 -2.66392,0.754993 -0.20449,-0.534638 -0.42183,-1.062386 -0.57567,-1.529622 -0.11787,-0.3579872 -0.22273,-0.7206724 -0.308,-1.0877897 -0.1754,-0.7552459 -0.13632,-1.0833908 0.55656,-1.4608928 2.56288,-0.7307117 5.22897,-1.0415976 7.78919,-1.7952392 1.84254,-0.5015785 3.71472,-0.8770703 5.58209,-1.2743408 z m 12.33981,1.7631998 c 0.006,0.00231 0.0129,0.00336 0.0191,0.00568 0.003,-0.00106 0.005,-0.00204 0.008,-0.0031 -0.009,-7.745e-4 -0.0169,-0.00178 -0.0269,-0.00258 z m -9.88105,4.076753 c -0.20464,0.07782 -0.40924,0.155853 -0.61391,0.233578 -0.0154,-0.02767 -0.0306,-0.05267 -0.046,-0.07958 0.21925,-0.05443 0.44042,-0.100595 0.65991,-0.153996 z m -71.700532,0.910022 c 0.442759,0.02881 0.497621,0.02799 1.482597,0.09147 2.571254,0.187219 5.142924,0.396258 7.714258,0.604614 -2.068759,0.08512 -4.136712,0.18745 -6.205823,0.262516 -3.459712,0.106162 -6.925903,0.205084 -10.39213,0.266134 2.462771,-0.434092 4.93039,-0.837239 7.401098,-1.224732 z m 77.386492,6.487977 c -0.0526,0.05413 -0.10636,0.107253 -0.15916,0.16123 -0.0742,-0.0044 -0.15014,0.01283 -0.2248,0.01705 0.12811,-0.05915 0.25583,-0.119182 0.38396,-0.178283 z m -39.65856,3.398242 c -0.054,0.02561 -0.10824,0.05086 -0.16227,0.07648 0.0237,-0.0132 0.047,-0.03251 0.0708,-0.04444 0.0305,-0.0107 0.061,-0.02134 0.0915,-0.03204 z m 8.34781,3.795117 c -0.38855,0.203952 -0.68907,0.350774 -3.23856,1.67845 -0.97005,0.505164 -1.94393,1.003519 -2.91249,1.511536 -0.92142,-0.226725 -1.74746,-0.448979 -2.54661,-0.673344 2.89967,-0.837426 5.80003,-1.67216 8.69766,-2.516642 z m 1.34152,2.582788 c 0.0445,0.02812 0.0927,0.05354 0.13797,0.08113 -0.007,0.374363 0.0404,0.673971 0.18604,0.835608 -0.92386,0.158287 -1.84754,0.31805 -2.77399,0.460954 0.81572,-0.460921 1.63019,-0.923893 2.44998,-1.377694 z m -5.87664,3.241146 c 0.0182,0.07505 0.035,0.150095 0.045,0.225309 -0.10368,-0.0231 -0.20697,-0.04745 -0.31057,-0.0708 0.0862,-0.05431 0.17504,-0.105564 0.26562,-0.154512 z"
       clip-path="url(#clipPath54)"
       transform="translate(3.1010442,-37.156547)" />
    <path
       id="path9"
       style="opacity:1;fill:#240e28;fill-opacity:1;stroke:#fffefe;stroke-width:0;stroke-miterlimit:0"
       d="m 0.79219971,-36.078418 c -0.15172309,-0.07729 -0.12677793,0.321299 -0.14159343,0.490926 -0.0186079,0.21305 0.0286615,0.426368 0.0428914,0.639754 0.001273,0.01134 0.001324,0.02276 0.002584,0.03411 -0.23018382,-0.09152 -0.13910943,0.123803 0.0325562,0.420646 0.28635472,2.929687 0.18758469,5.882746 0.054777,8.8191 0.0288865,2.770558 0.0165026,5.541509 0.0408244,8.312154 0.0124812,2.978929 -0.0206091,5.958348 0.03514,8.9369222 0.003698,1.9200871 -0.002271,3.8403219 -0.026355,5.760372 0.34286212,-0.01262 0.68578492,-0.017185 1.02887782,-0.020154 0.4000406,-0.020331 0.7973571,-0.07321 1.1963094,-0.1080037 0.4393359,-0.038139 0.8801485,-0.057916 1.3208496,-0.070797 0.4351693,-0.011163 0.8700611,-0.012866 1.3053467,-0.014986 0.4340845,-0.00177 0.8681585,-0.00222 1.302246,-0.00258 0.413243,-0.00993 0.8254532,0.00687 1.2376506,0.034106 0.4042754,0.026937 0.8093908,0.037949 1.2143962,0.046509 0.4463342,0.00816 0.8930574,0.00996 1.3394524,0.011886 0.445841,-0.00865 0.890486,0.02408 1.335319,0.048576 0.491966,0.025197 0.984418,0.032397 1.476913,0.038757 0.559573,0.00589 1.119367,0.00832 1.678967,0.00982 0.600501,0.00132 1.200939,0.00135 1.801441,0.00155 0.707539,1.919e-4 1.414812,-3.36e-5 2.122351,0 0.724841,2.9e-5 1.449704,-4.3e-6 2.174544,0 0.805005,3.8e-6 1.610352,-7e-7 2.415356,0 h 2.145606 1.971456 c 0.742492,-0.014815 1.483202,0.00982 2.224153,0.054777 1.097687,0.059019 2.195729,0.1102336 3.294373,0.1477946 1.504403,0.04597 3.00948,0.057531 4.514453,0.068213 0.812965,0.00577 1.298073,0.3298989 1.476396,0.721403 0.01154,-2.06e-5 0.02308,1.95e-5 0.03462,0 0.275734,-3.906e-4 0.551089,-4.601e-4 0.826823,-5.168e-4 0.368034,-5.55e-5 0.736291,9.1e-6 1.104325,0 0.364007,-7.6e-6 0.727917,1.2e-6 1.091923,0 0.190598,0.00339 0.381201,0.013278 0.571542,0.024288 0.07958,-0.085507 0.159066,-0.1710533 0.237194,-0.2578654 0.314087,-0.3489974 1.307444,-0.7851388 0.927076,-1.0604004 -4.839361,-3.5020985 -10.197608,-6.2253374 -15.296224,-9.3379315 -0.457367,0.662424 -1.021782,1.243146 -1.508435,1.88774 -3.130389,-1.918409 -6.38943,-3.640105 -9.591663,-5.448763 -0.140379,-1.588463 -0.282698,-3.176954 -0.417029,-4.7656 -0.09113,-1.059317 -0.182238,-2.118783 -0.273368,-3.178101 -0.111935,-0.701666 -0.260466,-1.398258 -0.335897,-2.104781 -0.05147,-0.482111 0.365497,-1.194518 -0.04392,-1.454175 -5.110991,-3.241122 -10.5515978,-5.937662 -15.9442461,-8.684741 z m 15.55460629,8.668722 c 0.06417,-0.05849 0.06382,0.297479 -0.01447,0.259932 -0.02812,-0.01348 -0.0556,-0.02834 -0.08372,-0.04186 0.01724,-0.08308 0.03834,-0.163545 0.09819,-0.218074 z M 2.1512899,-0.45733643 c -0.2175976,0.0114119 -0.4356381,0.0264114 -0.6511231,0.0599447 -0.1189753,0.0204428 -0.2341471,0.0457852 -0.3400309,0.10645345 -0.1232295,0.0543483 -0.25024967,0.1008272 -0.37982177,0.13797607 -0.005368,0.33955418 -0.008124,0.67917129 -0.0211873,1.01854248 -0.039335,1.50174123 -0.21112738,2.99506823 -0.20980631,4.49739983 0.009079,0.9279215 0.009746,1.8559933 0.0129191,2.7838095 0.0192953,1.0908604 0.0381203,2.1817184 0.0118856,3.2726684 0.0103711,1.052738 -0.0227116,2.10483 0.006201,3.15743 0.008901,1.014068 -0.0314838,2.026344 -0.0320394,3.040125 0.0135538,1.007596 0.0379688,2.015345 0.0382406,3.023071 -0.0146209,0.955512 -0.0755633,1.909762 -0.0346232,2.865975 0.0161713,1.055642 0.0124122,2.113306 0.11368815,3.165181 0.0368916,0.394497 0.0849454,0.785386 0.13125814,1.176673 -0.1760371,0.452482 -0.0255364,0.06257 -0.53226726,1.352889 -0.0428705,0.109745 -0.0819498,0.220871 -0.1245402,0.330729 0.0330259,0.34802 0.002602,0.750203 -0.11627197,1.203544 -0.12895502,0.491785 -0.15147889,1.010059 -0.19275309,1.51567 -0.0433285,0.57253 -0.0658833,1.146471 -0.0826823,1.720308 -0.0128169,0.474446 -0.0142555,0.9491 -0.0165365,1.423686 -0.009415,0.265501 0.004646,0.530201 0.0821655,0.784965 0.0840426,0.330281 0.18879306,0.654571 0.28473715,0.981335 0.14361788,0.39342 0.24158956,0.800673 0.31781005,1.211813 0.0653384,0.395143 0.0894461,0.795131 0.10645345,1.194759 0.0145165,0.412528 0.015708,0.825436 0.01757,1.238167 0.001813,0.500774 0.002226,1.001457 0.002584,1.502234 2.7031e-4,0.433615 -5.198e-5,0.867082 0,1.300696 -0.0167655,0.407974 -0.0662717,0.813209 -0.0925008,1.220597 -0.0202284,0.327974 -0.0287244,0.656972 -0.0341065,0.98547 -0.005714,0.398092 -0.006274,0.796117 -0.007235,1.194242 -9.5287e-4,0.477994 -0.001382,0.956026 -0.00155,1.434021 -1.4291e-4,0.450611 2.553e-5,0.901243 0,1.351855 -1.026e-5,0.198253 4.99e-6,0.396543 0,0.594796 -2.325e-5,0.924108 -0.29190061,1.559613 -0.69298096,1.906344 0.17288119,0.253416 0.3268585,0.550048 0.42219646,0.944645 0.0726972,0.02665 0.1430782,0.05203 0.21755778,0.07958 -0.0590387,0.02919 -0.12218091,0.05169 -0.18500163,0.07545 0.006488,0.0323 0.0137721,0.06292 0.019637,0.09612 0.0130312,0.07375 0.026243,0.147425 0.0392741,0.221175 0.0997315,0.516468 0.19834532,1.037638 0.17931722,1.566313 -2.421e-5,0.471718 -3.739e-4,0.943701 -5.1676e-4,1.415418 -1.66e-4,0.448188 -2.724e-5,0.896433 -0.001034,1.34462 -0.001145,0.448522 -0.002779,0.897172 -0.009302,1.345655 -0.008285,0.483059 -0.0180296,0.966039 -0.0542602,1.447973 -0.048009,0.586228 -0.11039405,1.174404 -0.29093832,1.737362 -0.09801213,0.299629 -0.20752072,0.595676 -0.33176269,0.885217 0.15798551,0.300519 0.2351454,0.629373 0.28783772,0.963249 0.05520024,0.411781 0.064723,0.82803 0.0738973,1.242818 0.008656,0.469169 0.01022948,0.938431 0.01188558,1.407666 4.4282e-4,0.14661 2.2829e-4,0.293187 5.1677e-4,0.439767 2.41905979,0.474223 6.25862769,1.253031 12.70826759,3.642671 0.486223,0.18015 0.328466,-0.983835 0.487309,-1.477429 0.220069,-0.683855 0.402645,-1.38036 0.649056,-2.055172 0.493147,-1.350515 1.625307,-3.838321 2.165243,-5.058606 0.350059,-0.679628 0.700306,-1.359368 1.050065,-2.039152 0.01076,-0.01449 0.02186,-0.02628 0.03101,-0.05994 0.05443,-0.105753 0.108754,-0.211597 0.163297,-0.317294 -0.03409,0.02227 -0.07265,0.02353 -0.120406,0.02791 0.0046,-0.04424 0.0074,-0.101645 0.01137,-0.150895 0.04406,0.02381 0.08876,0.04645 0.132808,0.07028 0.0029,0.0016 -0.0019,0.0044 0,0.0062 0.142306,-0.27565 0.282884,-0.552282 0.426331,-0.82734 0.368361,-0.706329 0.731131,-1.415758 1.099158,-2.122351 l 4.414717,2.170927 c -0.484551,-2.016924 -0.766581,-4.078191 -1.070219,-6.128825 -0.09016,-0.477507 -0.160467,-0.956453 -0.227893,-1.435571 2.403666,-3.838038 5.054044,-7.522793 7.738029,-11.16521 2.899143,-3.565546 1.460377,-1.882978 4.298446,-5.06274 l -9.069214,-5.424475 c 0.469277,-1.516648 1.083549,-3.44556 1.223698,-3.826123 0.40157,-1.090432 0.882266,-2.150104 1.323433,-3.225127 0.497054,-1.26212 0.960238,-2.537955 1.490865,-3.786332 0.529559,-1.245867 1.115123,-2.467405 1.688269,-3.693831 0.03434,-0.07348 0.07922,-0.164506 0.114205,-0.239262 1.297917,-2.088083 2.633909,-4.152672 4.023011,-6.1846355 2.194193,-3.1959147 4.379574,-6.3813595 6.876582,-9.35033361 -0.115408,-5e-8 -0.230814,-2.42e-6 -0.346232,0 -0.367944,9.07e-6 -0.735864,-5.546e-5 -1.103808,0 -0.274995,5.659e-5 -0.549762,1.278e-4 -0.824756,5.1676e-4 -0.279858,4.73e-4 -0.559889,7.7082e-4 -0.839742,0.002584 -0.325535,0.002525 -0.651251,0.006134 -0.976685,0.0149862 -0.299757,0.009314 -0.598975,0.026468 -0.898136,0.0475423 -0.286712,0.0130331 -0.57378,0.009863 -0.860413,0.0258382 -0.215001,0.01268521 -0.430057,0.02909125 -0.641304,0.07338054 -0.244179,0.05418843 -0.484926,0.12672127 -0.735356,0.14831136 -0.232241,0.0194191 -0.464469,0.0323582 -0.697632,0.0237712 -0.246766,-0.002134 -0.493906,-0.004499 -0.740523,-0.0139526 C 32.784652,0.10821895 32.51135,0.09644947 32.243514,0.04238496 32.105486,0.012724 31.968853,-0.02207082 31.834237,-0.06303496 c -0.182662,-0.01334 -0.366311,-1.4718e-4 -0.549321,-0.0046509 -0.05642,-0.0013985 -0.106541,-0.0085949 -0.158651,-0.0139629 C 30.921056,0.05094435 30.62627,0.12345078 30.226579,0.0594279 30.098376,0.03888361 29.969538,0.03064657 29.840039,0.02067057 29.61295,0.00194925 29.38588,-0.00611801 29.15791,0 c -0.202346,1.3374773e-5 -0.404336,-9.2025957e-5 -0.606681,0 -0.208926,1.0813142e-4 -0.41791,5.2638005e-4 -0.626835,0.00103353 -0.214539,6.415e-4 -0.429368,0.00112166 -0.643889,0.00413411 -0.282587,0.00445963 -0.565097,0.01173402 -0.847493,0.0232544 -0.440266,0.0190873 -0.879812,0.04716852 -1.319816,0.07131347 -0.479907,0.01829526 -0.959975,0.03985525 -1.437639,0.09198405 -0.410635,0.0384103 -0.822072,0.061469 -1.232999,0.0961182 -0.367583,0.0335355 -0.735771,0.0608223 -1.103292,0.0950846 -0.302115,0.0184625 -0.604114,0.0315769 -0.906921,0.0242879 -0.361263,-9.973e-5 -0.722392,-9.174e-5 -1.083655,-5.1677e-4 -0.397643,-5.27e-4 -0.795575,-7.337e-4 -1.193209,-0.003617 -0.421895,-0.003421 -0.843767,-0.008639 -1.265556,-0.0191203 -0.358006,-0.009265 -0.715913,-0.021306 -1.073319,-0.0444417 h -0.951363 -1.124996 -0.960665 c -0.340737,-7.8e-7 -0.681423,4.89e-6 -1.02216,0 -0.313255,-5.96e-6 -0.626739,3.01e-5 -0.939994,0 C 10.503591,0.3394783 10.190237,0.3392644 9.8763997,0.3389974 9.5722283,0.3386894 9.2679629,0.3387711 8.9637939,0.3374471 8.7205262,0.3360831 8.477278,0.33359552 8.2341227,0.32556152 8.0039183,0.31650092 7.7735637,0.30267354 7.5452759,0.27026774 7.3387144,0.24059244 7.1319095,0.21612894 6.9241252,0.19637044 6.6382783,0.16454944 6.3505954,0.15515917 6.0652629,0.11782227 5.8104957,0.08294479 5.5561152,0.0470549 5.3004517,0.01912028 5.1085088,0.00281977 4.9171519,-0.01129244 4.7242594,-0.00878499 4.4815231,-0.01641491 4.2387913,-0.02717076 3.997172,-0.05270996 3.6973594,-0.08940082 3.3978258,-0.13747802 3.1098877,-0.23151042 2.9318061,-0.29203601 2.7503942,-0.34300171 2.5693522,-0.39377441 2.4348968,-0.43571311 2.2918827,-0.46675843 2.1512899,-0.45733643 Z M 1.1699544,32.046623 c 0.046641,0.03868 0.093777,0.07674 0.1405599,0.115238 -0.00935,-0.0015 -0.017351,0.0052 -0.026872,0.0026 -0.062402,-0.01728 -0.095379,-0.06095 -0.1136882,-0.117822 z m -1.58078204,31.834232 c -6.6772e-4,-0.003 -7.4659e-4,-3.97e-4 -0.001034,0.0072 -2.4624e-4,0.0066 -0.001549,0.03339 -0.002067,0.04806 0.002037,-0.0103 0.004894,-0.01934 0.006718,-0.02997 -0.001694,-0.01366 -0.00295,-0.02229 -0.003617,-0.02532 z M 12.47004,70.22052 c 0.188511,0.108644 0.382295,0.208284 0.569991,0.318327 0.157016,0.09206 -0.345532,0.114347 -0.518315,0.171566 -0.0268,-0.162062 -0.03188,-0.326921 -0.05168,-0.489893 z"
       clip-path="url(#clipPath53)"
       transform="translate(-0.43083072,-37.156547)" />
    <path
       style="opacity:1;fill:#240e28;fill-opacity:1;stroke:#fffefe;stroke-width:0;stroke-miterlimit:0"
       id="path206"
       d="m 0.05170389,53.974674 c 0.01716653,-0.05801 0.01513834,-0.12568 0.05149962,-0.174027 0.0315671,-0.04198 0.0906423,-0.05319 0.13738792,-0.07713 0.0741392,-0.03797 0.14652441,-0.08087 0.22509936,-0.108516 0.0788134,-0.02773 0.51356939,-0.11996 0.57986001,-0.12124 0.096626,-0.0019 0.1909533,0.02995 0.28643,0.04492 0.098334,0.0191 0.1982861,0.03124 0.2950009,0.05733 0.097973,0.02643 0.1904961,0.07034 0.2875848,0.09986 0.091486,0.02781 0.1861661,0.04427 0.2776814,0.07199 0.089529,0.02711 0.1760861,0.06329 0.2649982,0.09237 0.1632467,0.05338 0.3283901,0.10079 0.4922114,0.152381 0.1938573,0.03031 0.3490949,0.13012 0.5119219,0.22978 0,0 0.1882913,-17.315603 0.1882913,-17.315603 v 0 C 3.482916,36.985339 3.3147367,37.039121 3.1374641,37.05571 2.926217,37.08365 2.686604,37.1114 2.4741377,37.10698 2.3821507,37.10508 2.290969,37.08809 2.199031,37.08454 1.6693558,37.06406 2.162101,37.12451 1.5942351,37.03493 1.4834127,37.016851 1.369285,37.013041 1.2617681,36.980672 1.193491,36.960114 0.75921948,36.750156 0.68697252,36.705854 0.60644253,36.656473 0.53725812,36.590396 0.45886314,36.537691 0.39405247,36.494116 0.31944026,36.465356 0.2578441,36.417347 0.1828783,36.358917 0.12041729,36.286008 0.05170389,36.220339 Z"
       clip-path="url(#clipPath36)"
       transform="translate(-0.43083072,-37.156547)" />
    <path
       style="opacity:1;fill:#501c5a;fill-opacity:1;stroke:#fffefe;stroke-width:0;stroke-miterlimit:0"
       id="path207"
       d="M 0.19866777,67.260353 C 0.37002,67.068001 0.45085698,66.947311 0.71322241,66.827849 c 0.11210301,-0.05104 0.2393102,-0.05926 0.36059209,-0.08079 0.2078227,-0.03688 0.6092934,-0.08674 0.818844,-0.06859 0.1313742,0.01138 0.2576384,0.05637 0.3864575,0.08455 0.2740952,0.133887 0.3871169,0.165661 0.614348,0.361159 0.069482,0.05978 0.125109,0.133985 0.1876636,0.200977 0,0 0.3428522,-16.892767 0.3428522,-16.892767 v 0 c -0.3065997,0.12409 -0.6141159,0.242081 -0.9464831,0.278231 -0.1412278,-0.0053 -0.2836654,0.0031 -0.4236835,-0.01609 C 1.8244784,50.663077 1.4549729,50.5442 1.2384013,50.461309 1.1181804,50.415295 0.98813209,50.383627 0.8839515,50.308017 0.85132647,50.284337 0.44490465,49.816855 0.39236512,49.756795 Z"
       clip-path="url(#clipPath35)"
       transform="translate(-0.43083072,-37.156547)" />
    <path
       style="opacity:1;fill:#240e28;fill-opacity:1;stroke:#fffefe;stroke-width:0;stroke-miterlimit:0"
       id="path208"
       d="m 0.26104718,66.468653 c 0.13219829,-0.139866 0.14101098,-0.160488 0.31213054,-0.284596 0.076225,-0.05528 0.1473051,-0.12428 0.23648045,-0.154517 0.0815066,-0.02764 0.17179872,-0.01249 0.25786123,-0.0131 0.225251,-0.0016 0.2751334,0.01333 0.4991953,0.04363 0.3097961,0.05577 0.6212466,0.100957 0.9299698,0.16229 0,0 0.055889,-17.01102 0.055889,-17.01102 v 0 C 2.2583189,49.25386 1.9618994,49.27507 1.6649792,49.29035 1.3802632,49.29455 1.4100354,49.30091 1.1177686,49.27612 1.0274576,49.26842 0.93274016,49.27772 0.84740815,49.24716 0.63698011,49.17182 0.41366791,48.959386 0.26104718,48.796553 Z"
       clip-path="url(#clipPath34)"
       transform="translate(-0.43083072,-37.156547)" />
    <rect
       style="opacity:1;fill:#240e28;fill-opacity:1;stroke:#fffefe;stroke-width:0;stroke-linejoin:round;stroke-miterlimit:0"
       id="rect2"
       width="3.1909306"
       height="7.9773264"
       x="1.3040155"
       y="11.859799"
       ry="1.5954653" />
    <rect
       style="opacity:1;fill:#240e28;fill-opacity:1;stroke:#fffefe;stroke-width:0;stroke-linejoin:round;stroke-miterlimit:0"
       id="rect6"
       width="3.9466774"
       height="19.313528"
       x="-0.20747799"
       y="14.294984"
       ry="0.75574672" />
  </g>
  <rect
     style="opacity:1;fill:url(#linearGradient22);fill-opacity:1;stroke:#fffefe;stroke-width:0;stroke-linejoin:round;stroke-miterlimit:0"
     id="rect15"
     width="72.165352"
     height="60.968304"
     x="185.92436"
     y="-158.23105"
     ry="12.420815"
     transform="matrix(0.75761037,0.65270707,-0.66990358,0.7424481,0,0)"
     clip-path="url(#clipPath65)" />
  <rect
     style="opacity:1;fill:url(#linearGradient23);fill-opacity:1;stroke:#fffefe;stroke-width:0;stroke-linejoin:round;stroke-miterlimit:0"
     id="rect22"
     width="72.165352"
     height="60.968304"
     x="156.07925"
     y="-129.01784"
     ry="12.420815"
     transform="matrix(0.75761037,0.65270707,-0.66990358,0.7424481,0,0)"
     clip-path="url(#clipPath64)" />
  <rect
     style="opacity:1;fill:url(#linearGradient24);fill-opacity:1;stroke:#fffefe;stroke-width:0;stroke-linejoin:round;stroke-miterlimit:0"
     id="rect23"
     width="72.165352"
     height="60.968304"
     x="126.22712"
     y="-101.38625"
     ry="12.420815"
     transform="matrix(0.75761037,0.65270707,-0.66990358,0.7424481,0,0)"
     clip-path="url(#clipPath63)" />
  <rect
     style="opacity:1;fill:url(#linearGradient26);fill-opacity:1;stroke:#fffefe;stroke-width:0;stroke-linejoin:round;stroke-miterlimit:0"
     id="rect25"
     width="72.165352"
     height="60.968304"
     x="19.392893"
     y="-13.638161"
     ry="12.420815"
     transform="matrix(0.75761037,0.65270707,-0.66990358,0.7424481,0,0)"
     clip-path="url(#clipPath62)" />
  <rect
     style="opacity:1;fill:url(#linearGradient27);fill-opacity:1;stroke:#fffefe;stroke-width:0;stroke-linejoin:round;stroke-miterlimit:0"
     id="rect26"
     width="72.165352"
     height="60.968304"
     x="55.093548"
     y="-40.951969"
     ry="12.420815"
     transform="matrix(0.75761037,0.65270707,-0.66990358,0.7424481,0,0)"
     clip-path="url(#clipPath61)" />
  <rect
     style="opacity:1;fill:url(#linearGradient28);fill-opacity:1;stroke:#fffefe;stroke-width:0;stroke-linejoin:round;stroke-miterlimit:0"
     id="rect27"
     width="72.165352"
     height="60.968304"
     x="88.166473"
     y="-72.74173"
     ry="12.420815"
     transform="matrix(0.75761037,0.65270707,-0.66990358,0.7424481,0,0)"
     clip-path="url(#clipPath52)" />
  <rect
     style="opacity:1;fill:url(#linearGradient30);fill-opacity:1;stroke:#fffefe;stroke-width:0;stroke-linejoin:round;stroke-miterlimit:0"
     id="rect28"
     width="72.165352"
     height="60.968304"
     x="55.093548"
     y="-40.951969"
     ry="12.420815"
     transform="matrix(0.75761037,0.65270707,-0.66990358,0.7424481,0,0)"
     clip-path="url(#clipPath51)" />
</svg>
