<?xml version="1.0" encoding="UTF-8"?>
<svg width="1440" height="1024" viewBox="0 0 1440 1024" fill="none" xmlns="http://www.w3.org/2000/svg">
  <path d="M0 0H1440V1024H0V0Z" fill="#6C2EB7" fill-opacity="0.05"/>
  <path d="M-100 -100C-100 -100 300 200 500 200C700 200 900 0 1100 0C1300 0 1500 200 1700 200C1900 200 2100 0 2300 0V300H-100V-100Z" fill="#6C2EB7" fill-opacity="0.03"/>
  <path d="M-100 400C-100 400 300 700 500 700C700 700 900 500 1100 500C1300 500 1500 700 1700 700C1900 700 2100 500 2300 500V800H-100V400Z" fill="#6C2EB7" fill-opacity="0.03"/>
  <path d="M-100 900C-100 900 300 1200 500 1200C700 1200 900 1000 1100 1000C1300 1000 1500 1200 1700 1200C1900 1200 2100 1000 2300 1000V1300H-100V900Z" fill="#6C2EB7" fill-opacity="0.03"/>
</svg> 